<svg width="52" height="5" viewBox="0 0 52 5" fill="none" xmlns="http://www.w3.org/2000/svg">
<path id="Slogan" d="M1.525 1.12C1.485 1.05667 1.43833 0.988333 1.385 0.915C1.33167 0.841666 1.28333 0.771666 1.24 0.705C1.2 0.638333 1.18 0.583333 1.18 0.54C1.18 0.503333 1.19167 0.471667 1.215 0.445C1.24167 0.415 1.27167 0.4 1.305 0.4C1.32167 0.46 1.355 0.528333 1.405 0.605C1.455 0.678333 1.50333 0.748333 1.55 0.815C1.59667 0.881666 1.62 0.936666 1.62 0.98C1.62 1.01 1.61 1.03667 1.59 1.06C1.57333 1.08333 1.55167 1.10333 1.525 1.12ZM0.975 1.12C0.935 1.05667 0.886667 0.988333 0.83 0.915C0.776667 0.841666 0.73 0.771666 0.69 0.705C0.65 0.638333 0.63 0.583333 0.63 0.54C0.63 0.503333 0.641667 0.471667 0.665 0.445C0.691667 0.415 0.721667 0.4 0.755 0.4C0.771667 0.46 0.805 0.528333 0.855 0.605C0.905 0.678333 0.953333 0.748333 1 0.815C1.04667 0.881666 1.07 0.936666 1.07 0.98C1.07 1.01 1.06 1.03667 1.04 1.06C1.02333 1.08333 1.00167 1.10333 0.975 1.12ZM1.56895 4.435C1.58895 4.31833 1.61228 4.19833 1.63895 4.075C1.66561 3.955 1.69895 3.82 1.73895 3.67C1.78228 3.51667 1.83395 3.34 1.89395 3.14C1.95395 2.94 2.02895 2.70333 2.11895 2.43C2.06561 2.43333 2.01061 2.43833 1.95395 2.445C1.90061 2.45167 1.84561 2.45833 1.78895 2.465C1.79228 2.38167 1.83061 2.31667 1.90395 2.27C1.98061 2.22 2.08061 2.18333 2.20395 2.16C2.26061 1.98333 2.32395 1.79167 2.39395 1.585C2.46728 1.375 2.54561 1.14833 2.62895 0.905C2.64228 0.868333 2.65728 0.823333 2.67395 0.77C2.69061 0.713333 2.69895 0.66 2.69895 0.61C2.69895 0.583333 2.69395 0.565 2.68395 0.555C2.67728 0.545 2.65895 0.54 2.62895 0.54C2.54895 0.54 2.47061 0.573333 2.39395 0.64C2.32061 0.703333 2.25395 0.785 2.19395 0.885C2.13728 0.985 2.09228 1.08833 2.05895 1.195C2.02561 1.30167 2.00895 1.39667 2.00895 1.48C2.00895 1.54333 2.01728 1.6 2.03395 1.65C1.92395 1.65 1.84561 1.62333 1.79895 1.57C1.75561 1.51333 1.73395 1.445 1.73395 1.365C1.73395 1.25167 1.76728 1.13833 1.83395 1.025C1.90061 0.911667 1.98561 0.808333 2.08895 0.715C2.19561 0.618333 2.30561 0.541666 2.41895 0.485C2.53561 0.428333 2.64061 0.4 2.73395 0.4C2.82395 0.4 2.88395 0.425 2.91395 0.475C2.94728 0.525 2.96395 0.58 2.96395 0.64C2.96395 0.676667 2.95895 0.713333 2.94895 0.75C2.94228 0.786666 2.93395 0.821666 2.92395 0.855L2.53395 2.125C2.58061 2.12167 2.62728 2.12 2.67395 2.12C2.72395 2.11667 2.77395 2.115 2.82395 2.115C2.98061 2.115 3.12895 2.12 3.26895 2.13C3.41228 2.13667 3.54728 2.14667 3.67395 2.16C3.74061 1.94667 3.80561 1.73667 3.86895 1.53C3.93561 1.32333 3.99561 1.14333 4.04895 0.99C4.10561 0.833333 4.14895 0.723333 4.17895 0.66C4.19228 0.633333 4.21061 0.6 4.23395 0.56C4.25728 0.52 4.28728 0.483333 4.32395 0.45C4.36395 0.416667 4.40728 0.4 4.45395 0.4C4.40728 0.523333 4.35395 0.681667 4.29395 0.875C4.23395 1.065 4.17228 1.27333 4.10895 1.5C4.04895 1.72667 3.98895 1.95333 3.92895 2.18C3.99561 2.18333 4.05895 2.18833 4.11895 2.195C4.18228 2.19833 4.24395 2.2 4.30395 2.2C4.23061 2.27667 4.15895 2.32333 4.08895 2.34C4.01895 2.35333 3.95061 2.36 3.88395 2.36C3.85395 2.48333 3.82561 2.60333 3.79895 2.72C3.77228 2.83333 3.74895 2.94167 3.72895 3.045C3.66895 3.32833 3.62561 3.57 3.59895 3.77C3.57561 3.97 3.56395 4.13167 3.56395 4.255C3.56395 4.295 3.56395 4.32833 3.56395 4.355C3.56728 4.385 3.57061 4.41167 3.57395 4.435C3.44395 4.42167 3.35395 4.385 3.30395 4.325C3.25395 4.265 3.22895 4.17167 3.22895 4.045C3.22895 3.95833 3.23895 3.85 3.25895 3.72C3.27895 3.58667 3.30895 3.44333 3.34895 3.29C3.37561 3.19 3.41228 3.05833 3.45895 2.895C3.50561 2.72833 3.55728 2.55167 3.61395 2.365C3.41061 2.365 3.24061 2.36667 3.10395 2.37C2.96728 2.37333 2.84895 2.37667 2.74895 2.38C2.64895 2.38333 2.54895 2.39 2.44895 2.4C2.38895 2.59333 2.32895 2.785 2.26895 2.975C2.20895 3.165 2.15395 3.34 2.10395 3.5C2.05395 3.65667 2.01228 3.79 1.97895 3.9C1.94561 4.01 1.92395 4.08167 1.91395 4.115C1.88061 4.22833 1.82728 4.31 1.75395 4.36C1.68395 4.41 1.62228 4.435 1.56895 4.435ZM4.59305 4.16C4.44971 4.16 4.34805 4.115 4.28805 4.025C4.22805 3.93833 4.19805 3.83167 4.19805 3.705C4.19805 3.60167 4.21471 3.495 4.24805 3.385C4.28138 3.275 4.32471 3.17167 4.37805 3.075C4.43471 2.97833 4.49638 2.9 4.56305 2.84C4.63305 2.78 4.70305 2.75 4.77305 2.75C4.80305 2.75 4.83805 2.75833 4.87805 2.775C4.84805 2.80167 4.81138 2.85167 4.76805 2.925C4.72805 2.995 4.68971 3.07667 4.65305 3.17C4.61638 3.26 4.58471 3.35 4.55805 3.44C4.53471 3.53 4.52305 3.60667 4.52305 3.67C4.52305 3.77 4.53971 3.84333 4.57305 3.89C4.60638 3.93333 4.64971 3.955 4.70305 3.955C4.77305 3.955 4.85638 3.91833 4.95305 3.845C5.04971 3.76833 5.14471 3.67167 5.23805 3.555C5.14471 3.47833 5.07138 3.37833 5.01805 3.255C4.96805 3.12833 4.94305 3 4.94305 2.87C4.94305 2.76 4.96138 2.65667 4.99805 2.56C5.03805 2.46333 5.09471 2.38667 5.16805 2.33C5.24138 2.27 5.32971 2.24 5.43305 2.24C5.56971 2.24 5.66138 2.27667 5.70805 2.35C5.75471 2.42333 5.77805 2.515 5.77805 2.625C5.77805 2.755 5.74638 2.9 5.68305 3.06C5.61971 3.21667 5.53971 3.36833 5.44305 3.515C5.50305 3.54833 5.56638 3.565 5.63305 3.565C5.70971 3.565 5.80305 3.54 5.91305 3.49C6.02305 3.43667 6.10805 3.34167 6.16805 3.205L6.22805 3.255C6.16138 3.41167 6.06638 3.52333 5.94305 3.59C5.82305 3.65333 5.70805 3.685 5.59805 3.685C5.50805 3.685 5.42805 3.66833 5.35805 3.635C5.24471 3.785 5.11971 3.91 4.98305 4.01C4.84971 4.11 4.71971 4.16 4.59305 4.16ZM5.32805 3.425C5.41138 3.30167 5.47971 3.17333 5.53305 3.04C5.58971 2.90333 5.61805 2.775 5.61805 2.655C5.61805 2.55833 5.60305 2.48833 5.57305 2.445C5.54638 2.39833 5.51138 2.375 5.46805 2.375C5.40138 2.375 5.33305 2.42333 5.26305 2.52C5.19305 2.61667 5.15805 2.73833 5.15805 2.885C5.15805 2.98167 5.17138 3.08 5.19805 3.18C5.22805 3.27667 5.27138 3.35833 5.32805 3.425ZM8.59422 4.155C8.47755 4.155 8.39255 4.11833 8.33922 4.045C8.28589 3.975 8.25922 3.89 8.25922 3.79C8.25922 3.70667 8.27089 3.62333 8.29422 3.54C8.32089 3.45667 8.34589 3.375 8.36922 3.295C8.39589 3.215 8.40922 3.14333 8.40922 3.08C8.40922 3.01333 8.39422 2.96667 8.36422 2.94C8.33422 2.91333 8.30089 2.9 8.26422 2.9C8.18089 2.9 8.08922 2.965 7.98922 3.095C7.89255 3.225 7.76589 3.40833 7.60922 3.645C7.55589 3.725 7.51089 3.80667 7.47422 3.89C7.43755 3.97 7.40255 4.04333 7.36922 4.11C7.34255 4.11 7.30922 4.10667 7.26922 4.1C7.22922 4.09333 7.19255 4.08167 7.15922 4.065C7.12922 4.05167 7.11422 4.03333 7.11422 4.01C7.11422 3.98667 7.12922 3.93167 7.15922 3.845C7.19255 3.755 7.22922 3.65167 7.26922 3.535C7.31255 3.415 7.34922 3.295 7.37922 3.175C7.41255 3.05167 7.42922 2.94667 7.42922 2.86C7.42922 2.80333 7.41922 2.75833 7.39922 2.725C7.38255 2.68833 7.35089 2.67 7.30422 2.67C7.23089 2.67 7.14255 2.715 7.03922 2.805C6.93589 2.89167 6.82922 3.00667 6.71922 3.15C6.60922 3.29333 6.50422 3.45167 6.40422 3.625C6.30755 3.795 6.22922 3.965 6.16922 4.135C6.12255 4.135 6.06589 4.12333 5.99922 4.1C5.93255 4.07667 5.89922 4.05333 5.89922 4.03C5.89922 4.01 5.91755 3.95167 5.95422 3.855C5.98755 3.755 6.02755 3.63667 6.07422 3.5C6.11755 3.36 6.15589 3.21833 6.18922 3.075C6.22589 2.93167 6.24422 2.805 6.24422 2.695C6.26422 2.67167 6.29589 2.64833 6.33922 2.625C6.38255 2.60167 6.42755 2.59 6.47422 2.59C6.56422 2.59 6.60922 2.63333 6.60922 2.72C6.60922 2.76333 6.59589 2.83833 6.56922 2.945C6.54589 3.04833 6.51589 3.16333 6.47922 3.29C6.54589 3.18333 6.62089 3.075 6.70422 2.965C6.79089 2.85167 6.88089 2.74833 6.97422 2.655C7.06755 2.56167 7.16089 2.48667 7.25422 2.43C7.35089 2.37 7.44422 2.34 7.53422 2.34C7.63755 2.34 7.70755 2.37833 7.74422 2.455C7.78422 2.52833 7.80422 2.61667 7.80422 2.72C7.80422 2.80333 7.79422 2.89167 7.77422 2.985C7.75755 3.075 7.73755 3.16 7.71422 3.24C7.69089 3.31667 7.66922 3.37833 7.64922 3.425C7.71922 3.29833 7.79589 3.17667 7.87922 3.06C7.96589 2.94 8.05922 2.84333 8.15922 2.77C8.25922 2.69333 8.36589 2.655 8.47922 2.655C8.58589 2.655 8.65922 2.68667 8.69922 2.75C8.74255 2.81333 8.76422 2.88833 8.76422 2.975C8.76422 3.06167 8.74922 3.15667 8.71922 3.26C8.68922 3.36333 8.65755 3.46333 8.62422 3.56C8.59422 3.65667 8.57922 3.74 8.57922 3.81C8.57922 3.85333 8.58922 3.89333 8.60922 3.93C8.63255 3.96333 8.67255 3.98 8.72922 3.98C8.82255 3.98 8.90922 3.93833 8.98922 3.855C9.07255 3.76833 9.14922 3.665 9.21922 3.545C9.28922 3.42167 9.34922 3.30333 9.39922 3.19L9.45922 3.26C9.40589 3.4 9.33755 3.54 9.25422 3.68C9.17089 3.81667 9.07255 3.93 8.95922 4.02C8.84922 4.11 8.72755 4.155 8.59422 4.155ZM9.84664 4.22C9.64331 4.22 9.48997 4.16333 9.38664 4.05C9.28664 3.94 9.23664 3.80333 9.23664 3.64C9.23664 3.49 9.27331 3.33167 9.34664 3.165C9.42331 2.99833 9.52331 2.84167 9.64664 2.695C9.77331 2.54833 9.91164 2.43 10.0616 2.34C10.2116 2.24667 10.36 2.2 10.5066 2.2C10.5833 2.2 10.6533 2.22 10.7166 2.26C10.7833 2.3 10.8166 2.38167 10.8166 2.505C10.8166 2.63167 10.7783 2.75167 10.7016 2.865C10.6283 2.975 10.53 3.07333 10.4066 3.16C10.2866 3.24667 10.1533 3.31833 10.0066 3.375C9.86331 3.42833 9.71997 3.46167 9.57664 3.475C9.56997 3.50833 9.56497 3.54 9.56164 3.57C9.55831 3.6 9.55664 3.62833 9.55664 3.655C9.55664 3.75833 9.58331 3.855 9.63664 3.945C9.69331 4.03167 9.79831 4.075 9.95164 4.075C10.095 4.075 10.2366 4.035 10.3766 3.955C10.5166 3.87167 10.6466 3.76333 10.7666 3.63C10.8866 3.49667 10.9883 3.35 11.0716 3.19L11.1316 3.235C11.0416 3.435 10.9266 3.60833 10.7866 3.755C10.65 3.90167 10.5 4.015 10.3366 4.095C10.1766 4.17833 10.0133 4.22 9.84664 4.22ZM9.60164 3.38C9.69164 3.35 9.79331 3.30667 9.90664 3.25C10.02 3.19 10.1283 3.12 10.2316 3.04C10.3383 2.96 10.425 2.87167 10.4916 2.775C10.5616 2.67833 10.5966 2.57667 10.5966 2.47C10.5966 2.43333 10.59 2.405 10.5766 2.385C10.5633 2.365 10.535 2.355 10.4916 2.355C10.4116 2.355 10.3266 2.38667 10.2366 2.45C10.1466 2.51 10.06 2.59 9.97664 2.69C9.89331 2.79 9.81831 2.9 9.75164 3.02C9.68497 3.14 9.63497 3.26 9.60164 3.38ZM13.4917 4.155C13.375 4.155 13.29 4.11833 13.2367 4.045C13.1833 3.975 13.1567 3.89 13.1567 3.79C13.1567 3.70667 13.1683 3.62333 13.1917 3.54C13.2183 3.45667 13.2433 3.375 13.2667 3.295C13.2933 3.215 13.3067 3.14333 13.3067 3.08C13.3067 3.01333 13.2917 2.96667 13.2617 2.94C13.2317 2.91333 13.1983 2.9 13.1617 2.9C13.0783 2.9 12.9867 2.965 12.8867 3.095C12.79 3.225 12.6633 3.40833 12.5067 3.645C12.4533 3.725 12.4083 3.80667 12.3717 3.89C12.335 3.97 12.3 4.04333 12.2667 4.11C12.24 4.11 12.2067 4.10667 12.1667 4.1C12.1267 4.09333 12.09 4.08167 12.0567 4.065C12.0267 4.05167 12.0117 4.03333 12.0117 4.01C12.0117 3.98667 12.0267 3.93167 12.0567 3.845C12.09 3.755 12.1267 3.65167 12.1667 3.535C12.21 3.415 12.2467 3.295 12.2767 3.175C12.31 3.05167 12.3267 2.94667 12.3267 2.86C12.3267 2.80333 12.3167 2.75833 12.2967 2.725C12.28 2.68833 12.2483 2.67 12.2017 2.67C12.1283 2.67 12.04 2.715 11.9367 2.805C11.8333 2.89167 11.7267 3.00667 11.6167 3.15C11.5067 3.29333 11.4017 3.45167 11.3017 3.625C11.205 3.795 11.1267 3.965 11.0667 4.135C11.02 4.135 10.9633 4.12333 10.8967 4.1C10.83 4.07667 10.7967 4.05333 10.7967 4.03C10.7967 4.01 10.815 3.95167 10.8517 3.855C10.885 3.755 10.925 3.63667 10.9717 3.5C11.015 3.36 11.0533 3.21833 11.0867 3.075C11.1233 2.93167 11.1417 2.805 11.1417 2.695C11.1617 2.67167 11.1933 2.64833 11.2367 2.625C11.28 2.60167 11.325 2.59 11.3717 2.59C11.4617 2.59 11.5067 2.63333 11.5067 2.72C11.5067 2.76333 11.4933 2.83833 11.4667 2.945C11.4433 3.04833 11.4133 3.16333 11.3767 3.29C11.4433 3.18333 11.5183 3.075 11.6017 2.965C11.6883 2.85167 11.7783 2.74833 11.8717 2.655C11.965 2.56167 12.0583 2.48667 12.1517 2.43C12.2483 2.37 12.3417 2.34 12.4317 2.34C12.535 2.34 12.605 2.37833 12.6417 2.455C12.6817 2.52833 12.7017 2.61667 12.7017 2.72C12.7017 2.80333 12.6917 2.89167 12.6717 2.985C12.655 3.075 12.635 3.16 12.6117 3.24C12.5883 3.31667 12.5667 3.37833 12.5467 3.425C12.6167 3.29833 12.6933 3.17667 12.7767 3.06C12.8633 2.94 12.9567 2.84333 13.0567 2.77C13.1567 2.69333 13.2633 2.655 13.3767 2.655C13.4833 2.655 13.5567 2.68667 13.5967 2.75C13.64 2.81333 13.6617 2.88833 13.6617 2.975C13.6617 3.06167 13.6467 3.15667 13.6167 3.26C13.5867 3.36333 13.555 3.46333 13.5217 3.56C13.4917 3.65667 13.4767 3.74 13.4767 3.81C13.4767 3.85333 13.4867 3.89333 13.5067 3.93C13.53 3.96333 13.57 3.98 13.6267 3.98C13.72 3.98 13.8067 3.93833 13.8867 3.855C13.97 3.76833 14.0467 3.665 14.1167 3.545C14.1867 3.42167 14.2467 3.30333 14.2967 3.19L14.3567 3.26C14.3033 3.4 14.235 3.54 14.1517 3.68C14.0683 3.81667 13.97 3.93 13.8567 4.02C13.7467 4.11 13.625 4.155 13.4917 4.155ZM14.4441 4.235C14.3408 4.235 14.2541 4.2 14.1841 4.13C14.1108 4.06333 14.0741 3.96 14.0741 3.82C14.0741 3.7 14.1008 3.57167 14.1541 3.435C14.2074 3.295 14.2808 3.15833 14.3741 3.025C14.4674 2.88833 14.5724 2.765 14.6891 2.655C14.8091 2.54167 14.9341 2.45167 15.0641 2.385C15.1974 2.31833 15.3291 2.285 15.4591 2.285C15.5891 2.285 15.6974 2.32 15.7841 2.39C15.8708 2.45667 15.9141 2.54667 15.9141 2.66C15.9141 2.74333 15.8908 2.8 15.8441 2.83C15.8008 2.86 15.7424 2.875 15.6691 2.875C15.6858 2.815 15.6941 2.75667 15.6941 2.7C15.6941 2.62333 15.6758 2.55833 15.6391 2.505C15.6024 2.44833 15.5391 2.42 15.4491 2.42C15.3558 2.42 15.2608 2.45333 15.1641 2.52C15.0674 2.58333 14.9741 2.67 14.8841 2.78C14.7941 2.88667 14.7141 3.00333 14.6441 3.13C14.5741 3.25667 14.5191 3.38167 14.4791 3.505C14.4391 3.62833 14.4191 3.73833 14.4191 3.835C14.4191 3.965 14.4641 4.03 14.5541 4.03C14.6308 4.03 14.7141 3.995 14.8041 3.925C14.8941 3.85167 14.9858 3.76 15.0791 3.65C15.1758 3.53667 15.2674 3.42 15.3541 3.3C15.4408 3.18 15.5174 3.07 15.5841 2.97C15.5974 2.95 15.6058 2.94 15.6091 2.94C15.6391 2.94333 15.6791 2.95667 15.7291 2.98C15.7791 3 15.8041 3.02833 15.8041 3.065C15.8041 3.095 15.7891 3.13667 15.7591 3.19C15.7291 3.24 15.6958 3.29833 15.6591 3.365C15.6224 3.43167 15.5891 3.5 15.5591 3.57C15.5291 3.63667 15.5141 3.7 15.5141 3.76C15.5141 3.81 15.5274 3.86 15.5541 3.91C15.5808 3.95667 15.6241 3.98 15.6841 3.98C15.7741 3.98 15.8924 3.915 16.0391 3.785C16.1858 3.65167 16.3341 3.45333 16.4841 3.19L16.5341 3.24C16.4641 3.42 16.3741 3.57833 16.2641 3.715C16.1541 3.85167 16.0358 3.95833 15.9091 4.035C15.7858 4.11167 15.6641 4.15 15.5441 4.15C15.4208 4.15 15.3291 4.11333 15.2691 4.04C15.2124 3.96667 15.1841 3.88667 15.1841 3.8C15.1841 3.75667 15.1891 3.70833 15.1991 3.655C15.0558 3.84833 14.9241 3.99333 14.8041 4.09C14.6874 4.18667 14.5674 4.235 14.4441 4.235ZM16.6768 4.15C16.5935 4.15 16.5102 4.11667 16.4268 4.05C16.3435 3.98333 16.3018 3.87667 16.3018 3.73C16.3018 3.62 16.3285 3.49667 16.3818 3.36C16.4352 3.22333 16.5068 3.08833 16.5968 2.955C16.6868 2.81833 16.7902 2.69333 16.9068 2.58C17.0235 2.46333 17.1452 2.37167 17.2718 2.305C17.3985 2.235 17.5235 2.2 17.6468 2.2C17.7935 2.2 17.8668 2.25167 17.8668 2.355C17.8668 2.36833 17.8652 2.38 17.8618 2.39C17.8618 2.4 17.8602 2.41167 17.8568 2.425C17.8235 2.375 17.7602 2.35 17.6668 2.35C17.5602 2.35 17.4552 2.38333 17.3518 2.45C17.2518 2.51333 17.1585 2.59833 17.0718 2.705C16.9885 2.80833 16.9152 2.92 16.8518 3.04C16.7885 3.16 16.7385 3.27667 16.7018 3.39C16.6685 3.5 16.6518 3.59333 16.6518 3.67C16.6518 3.74333 16.6685 3.80167 16.7018 3.845C16.7352 3.88833 16.7785 3.91 16.8318 3.91C16.9218 3.91 17.0302 3.85333 17.1568 3.74C17.2868 3.62667 17.4185 3.46667 17.5518 3.26C17.6852 3.05333 17.8052 2.81167 17.9118 2.535C17.9852 2.34167 18.0602 2.145 18.1368 1.945C18.2168 1.745 18.2968 1.55333 18.3768 1.37C18.4568 1.18333 18.5335 1.01833 18.6068 0.875C18.6835 0.728333 18.7552 0.613333 18.8218 0.53C18.8918 0.443333 18.9535 0.4 19.0068 0.4C19.0335 0.4 19.0568 0.411666 19.0768 0.435C19.0968 0.455 19.1068 0.481667 19.1068 0.515C19.1068 0.568333 19.0785 0.66 19.0218 0.79C18.9685 0.916667 18.8968 1.07 18.8068 1.25C18.7202 1.42667 18.6285 1.62 18.5318 1.83C18.4352 2.04 18.3418 2.25333 18.2518 2.47C18.1652 2.68667 18.0935 2.89667 18.0368 3.1C17.9835 3.3 17.9568 3.48333 17.9568 3.65C17.9568 3.74333 17.9618 3.81333 17.9718 3.86C17.9818 3.90667 18.0152 3.93 18.0718 3.93C18.1418 3.93 18.2235 3.9 18.3168 3.84C18.4102 3.78 18.5035 3.695 18.5968 3.585C18.6902 3.475 18.7718 3.34333 18.8418 3.19L18.9018 3.235C18.8385 3.405 18.7518 3.55833 18.6418 3.695C18.5318 3.82833 18.4135 3.93333 18.2868 4.01C18.1635 4.09 18.0452 4.13 17.9318 4.13C17.8085 4.13 17.7218 4.08833 17.6718 4.005C17.6252 3.925 17.6018 3.84167 17.6018 3.755C17.6018 3.69833 17.6102 3.62333 17.6268 3.53C17.6435 3.43667 17.6668 3.33333 17.6968 3.22C17.5902 3.39667 17.4768 3.55667 17.3568 3.7C17.2368 3.84 17.1185 3.95 17.0018 4.03C16.8885 4.11 16.7802 4.15 16.6768 4.15ZM19.2851 4.22C19.0818 4.22 18.9285 4.16333 18.8251 4.05C18.7251 3.94 18.6751 3.80333 18.6751 3.64C18.6751 3.49 18.7118 3.33167 18.7851 3.165C18.8618 2.99833 18.9618 2.84167 19.0851 2.695C19.2118 2.54833 19.3501 2.43 19.5001 2.34C19.6501 2.24667 19.7985 2.2 19.9451 2.2C20.0218 2.2 20.0918 2.22 20.1551 2.26C20.2218 2.3 20.2551 2.38167 20.2551 2.505C20.2551 2.63167 20.2168 2.75167 20.1401 2.865C20.0668 2.975 19.9685 3.07333 19.8451 3.16C19.7251 3.24667 19.5918 3.31833 19.4451 3.375C19.3018 3.42833 19.1585 3.46167 19.0151 3.475C19.0085 3.50833 19.0035 3.54 19.0001 3.57C18.9968 3.6 18.9951 3.62833 18.9951 3.655C18.9951 3.75833 19.0218 3.855 19.0751 3.945C19.1318 4.03167 19.2368 4.075 19.3901 4.075C19.5335 4.075 19.6751 4.035 19.8151 3.955C19.9551 3.87167 20.0851 3.76333 20.2051 3.63C20.3251 3.49667 20.4268 3.35 20.5101 3.19L20.5701 3.235C20.4801 3.435 20.3651 3.60833 20.2251 3.755C20.0885 3.90167 19.9385 4.015 19.7751 4.095C19.6151 4.17833 19.4518 4.22 19.2851 4.22ZM19.0401 3.38C19.1301 3.35 19.2318 3.30667 19.3451 3.25C19.4585 3.19 19.5668 3.12 19.6701 3.04C19.7768 2.96 19.8635 2.87167 19.9301 2.775C20.0001 2.67833 20.0351 2.57667 20.0351 2.47C20.0351 2.43333 20.0285 2.405 20.0151 2.385C20.0018 2.365 19.9735 2.355 19.9301 2.355C19.8501 2.355 19.7651 2.38667 19.6751 2.45C19.5851 2.51 19.4985 2.59 19.4151 2.69C19.3318 2.79 19.2568 2.9 19.1901 3.02C19.1235 3.14 19.0735 3.26 19.0401 3.38ZM22.469 4.435C22.3157 4.42167 22.2207 4.38 22.184 4.31C22.1473 4.24 22.129 4.15 22.129 4.04C22.129 3.92 22.154 3.77333 22.204 3.6C22.254 3.42333 22.3157 3.23167 22.389 3.025C22.4657 2.81833 22.5423 2.61167 22.619 2.405C22.559 2.40833 22.4907 2.415 22.414 2.425C22.3407 2.435 22.224 2.45167 22.064 2.475C22.0707 2.34833 22.1357 2.26 22.259 2.21C22.3857 2.15667 22.539 2.12833 22.719 2.125C22.8123 1.86833 22.9073 1.61833 23.004 1.375C23.104 1.12833 23.2023 0.903333 23.299 0.7C23.2657 0.696667 23.2323 0.695 23.199 0.695C23.169 0.691666 23.1373 0.69 23.104 0.69C22.8907 0.69 22.7257 0.711666 22.609 0.755C22.4923 0.798333 22.4123 0.865 22.369 0.955C22.3257 1.045 22.304 1.16 22.304 1.3C22.304 1.43667 22.3257 1.56833 22.369 1.695C22.2557 1.675 22.1723 1.63167 22.119 1.565C22.0657 1.495 22.039 1.40833 22.039 1.305C22.039 1.13167 22.1007 0.98 22.224 0.85C22.3473 0.716667 22.5123 0.613333 22.719 0.54C22.929 0.463333 23.1607 0.425 23.414 0.425C23.5907 0.425 23.7607 0.438333 23.924 0.465C24.0907 0.488333 24.2523 0.5 24.409 0.5C24.5423 0.5 24.6657 0.483333 24.779 0.45C24.6557 0.59 24.5523 0.683333 24.469 0.73C24.3857 0.776666 24.3007 0.8 24.214 0.8C24.1373 0.8 24.0373 0.79 23.914 0.77C23.794 0.746666 23.6573 0.728333 23.504 0.715C23.4607 0.825 23.4123 0.958333 23.359 1.115C23.3057 1.26833 23.2507 1.43333 23.194 1.61C23.1373 1.78333 23.0807 1.95667 23.024 2.13C23.1907 2.14 23.3473 2.155 23.494 2.175C23.644 2.195 23.779 2.20667 23.899 2.21C23.8723 2.25 23.8407 2.28167 23.804 2.305C23.7707 2.325 23.7223 2.34 23.659 2.35C23.5957 2.36 23.5073 2.36833 23.394 2.375C23.284 2.37833 23.1357 2.38167 22.949 2.385C22.929 2.455 22.904 2.53833 22.874 2.635C22.844 2.73167 22.8173 2.82333 22.794 2.91C22.7707 2.99667 22.7523 3.06 22.739 3.1C22.6657 3.35667 22.6023 3.59667 22.549 3.82C22.499 4.04333 22.4723 4.24833 22.469 4.435ZM24.8982 4.13C24.7849 4.13 24.6949 4.1 24.6282 4.04C24.5649 3.98 24.5332 3.90167 24.5332 3.805C24.5332 3.705 24.5565 3.6 24.6032 3.49C24.6499 3.38 24.6949 3.27167 24.7382 3.165C24.7849 3.055 24.8082 2.95667 24.8082 2.87C24.8082 2.76333 24.7765 2.685 24.7132 2.635C24.6532 2.58167 24.5915 2.53333 24.5282 2.49C24.4515 2.68667 24.3715 2.87333 24.2882 3.05C24.2049 3.22667 24.1365 3.36 24.0832 3.45L24.0382 3.365C24.0849 3.27833 24.1449 3.15167 24.2182 2.985C24.2949 2.81833 24.3699 2.62833 24.4432 2.415C24.4099 2.38167 24.3932 2.34167 24.3932 2.295C24.3932 2.195 24.4215 2.11333 24.4782 2.05C24.5349 1.98667 24.5765 1.955 24.6032 1.955C24.6399 1.955 24.6599 1.97167 24.6632 2.005C24.6699 2.035 24.6732 2.05833 24.6732 2.075C24.6732 2.09167 24.6632 2.125 24.6432 2.175C24.6265 2.22167 24.6182 2.25 24.6182 2.26C24.6182 2.30667 24.6432 2.35 24.6932 2.39C24.7465 2.42667 24.8065 2.47 24.8732 2.52C24.9399 2.56667 24.9982 2.625 25.0482 2.695C25.1015 2.76167 25.1282 2.84833 25.1282 2.955C25.1282 3.055 25.1065 3.15667 25.0632 3.26C25.0232 3.36333 24.9815 3.46167 24.9382 3.555C24.8982 3.64833 24.8782 3.73 24.8782 3.8C24.8782 3.86 24.8932 3.9 24.9232 3.92C24.9532 3.94 24.9882 3.95 25.0282 3.95C25.1082 3.95 25.1899 3.925 25.2732 3.875C25.3599 3.825 25.4432 3.76167 25.5232 3.685C25.6032 3.60833 25.6749 3.52833 25.7382 3.445C25.8015 3.35833 25.8482 3.27833 25.8782 3.205L25.9432 3.255C25.8799 3.395 25.7932 3.53333 25.6832 3.67C25.5732 3.80333 25.4499 3.91333 25.3132 4C25.1799 4.08667 25.0415 4.13 24.8982 4.13ZM26.1165 4.16C25.9732 4.16 25.8715 4.115 25.8115 4.025C25.7515 3.93833 25.7215 3.83167 25.7215 3.705C25.7215 3.60167 25.7382 3.495 25.7715 3.385C25.8048 3.275 25.8482 3.17167 25.9015 3.075C25.9582 2.97833 26.0198 2.9 26.0865 2.84C26.1565 2.78 26.2265 2.75 26.2965 2.75C26.3265 2.75 26.3615 2.75833 26.4015 2.775C26.3715 2.80167 26.3348 2.85167 26.2915 2.925C26.2515 2.995 26.2132 3.07667 26.1765 3.17C26.1398 3.26 26.1082 3.35 26.0815 3.44C26.0582 3.53 26.0465 3.60667 26.0465 3.67C26.0465 3.77 26.0632 3.84333 26.0965 3.89C26.1298 3.93333 26.1732 3.955 26.2265 3.955C26.2965 3.955 26.3798 3.91833 26.4765 3.845C26.5732 3.76833 26.6682 3.67167 26.7615 3.555C26.6682 3.47833 26.5948 3.37833 26.5415 3.255C26.4915 3.12833 26.4665 3 26.4665 2.87C26.4665 2.76 26.4848 2.65667 26.5215 2.56C26.5615 2.46333 26.6182 2.38667 26.6915 2.33C26.7648 2.27 26.8532 2.24 26.9565 2.24C27.0932 2.24 27.1848 2.27667 27.2315 2.35C27.2782 2.42333 27.3015 2.515 27.3015 2.625C27.3015 2.755 27.2698 2.9 27.2065 3.06C27.1432 3.21667 27.0632 3.36833 26.9665 3.515C27.0265 3.54833 27.0898 3.565 27.1565 3.565C27.2332 3.565 27.3265 3.54 27.4365 3.49C27.5465 3.43667 27.6315 3.34167 27.6915 3.205L27.7515 3.255C27.6848 3.41167 27.5898 3.52333 27.4665 3.59C27.3465 3.65333 27.2315 3.685 27.1215 3.685C27.0315 3.685 26.9515 3.66833 26.8815 3.635C26.7682 3.785 26.6432 3.91 26.5065 4.01C26.3732 4.11 26.2432 4.16 26.1165 4.16ZM26.8515 3.425C26.9348 3.30167 27.0032 3.17333 27.0565 3.04C27.1132 2.90333 27.1415 2.775 27.1415 2.655C27.1415 2.55833 27.1265 2.48833 27.0965 2.445C27.0698 2.39833 27.0348 2.375 26.9915 2.375C26.9248 2.375 26.8565 2.42333 26.7865 2.52C26.7165 2.61667 26.6815 2.73833 26.6815 2.885C26.6815 2.98167 26.6948 3.08 26.7215 3.18C26.7515 3.27667 26.7948 3.35833 26.8515 3.425ZM30.1177 4.155C30.001 4.155 29.916 4.11833 29.8627 4.045C29.8093 3.975 29.7827 3.89 29.7827 3.79C29.7827 3.70667 29.7943 3.62333 29.8177 3.54C29.8443 3.45667 29.8693 3.375 29.8927 3.295C29.9193 3.215 29.9327 3.14333 29.9327 3.08C29.9327 3.01333 29.9177 2.96667 29.8877 2.94C29.8577 2.91333 29.8243 2.9 29.7877 2.9C29.7043 2.9 29.6127 2.965 29.5127 3.095C29.416 3.225 29.2893 3.40833 29.1327 3.645C29.0793 3.725 29.0343 3.80667 28.9977 3.89C28.961 3.97 28.926 4.04333 28.8927 4.11C28.866 4.11 28.8327 4.10667 28.7927 4.1C28.7527 4.09333 28.716 4.08167 28.6827 4.065C28.6527 4.05167 28.6377 4.03333 28.6377 4.01C28.6377 3.98667 28.6527 3.93167 28.6827 3.845C28.716 3.755 28.7527 3.65167 28.7927 3.535C28.836 3.415 28.8727 3.295 28.9027 3.175C28.936 3.05167 28.9527 2.94667 28.9527 2.86C28.9527 2.80333 28.9427 2.75833 28.9227 2.725C28.906 2.68833 28.8743 2.67 28.8277 2.67C28.7543 2.67 28.666 2.715 28.5627 2.805C28.4593 2.89167 28.3527 3.00667 28.2427 3.15C28.1327 3.29333 28.0277 3.45167 27.9277 3.625C27.831 3.795 27.7527 3.965 27.6927 4.135C27.646 4.135 27.5893 4.12333 27.5227 4.1C27.456 4.07667 27.4227 4.05333 27.4227 4.03C27.4227 4.01 27.441 3.95167 27.4777 3.855C27.511 3.755 27.551 3.63667 27.5977 3.5C27.641 3.36 27.6793 3.21833 27.7127 3.075C27.7493 2.93167 27.7677 2.805 27.7677 2.695C27.7877 2.67167 27.8193 2.64833 27.8627 2.625C27.906 2.60167 27.951 2.59 27.9977 2.59C28.0877 2.59 28.1327 2.63333 28.1327 2.72C28.1327 2.76333 28.1193 2.83833 28.0927 2.945C28.0693 3.04833 28.0393 3.16333 28.0027 3.29C28.0693 3.18333 28.1443 3.075 28.2277 2.965C28.3143 2.85167 28.4043 2.74833 28.4977 2.655C28.591 2.56167 28.6843 2.48667 28.7777 2.43C28.8743 2.37 28.9677 2.34 29.0577 2.34C29.161 2.34 29.231 2.37833 29.2677 2.455C29.3077 2.52833 29.3277 2.61667 29.3277 2.72C29.3277 2.80333 29.3177 2.89167 29.2977 2.985C29.281 3.075 29.261 3.16 29.2377 3.24C29.2143 3.31667 29.1927 3.37833 29.1727 3.425C29.2427 3.29833 29.3193 3.17667 29.4027 3.06C29.4893 2.94 29.5827 2.84333 29.6827 2.77C29.7827 2.69333 29.8893 2.655 30.0027 2.655C30.1093 2.655 30.1827 2.68667 30.2227 2.75C30.266 2.81333 30.2877 2.88833 30.2877 2.975C30.2877 3.06167 30.2727 3.15667 30.2427 3.26C30.2127 3.36333 30.181 3.46333 30.1477 3.56C30.1177 3.65667 30.1027 3.74 30.1027 3.81C30.1027 3.85333 30.1127 3.89333 30.1327 3.93C30.156 3.96333 30.196 3.98 30.2527 3.98C30.346 3.98 30.4327 3.93833 30.5127 3.855C30.596 3.76833 30.6727 3.665 30.7427 3.545C30.8127 3.42167 30.8727 3.30333 30.9227 3.19L30.9827 3.26C30.9293 3.4 30.861 3.54 30.7777 3.68C30.6943 3.81667 30.596 3.93 30.4827 4.02C30.3727 4.11 30.251 4.155 30.1177 4.155ZM33.0639 4.435C32.9139 4.435 32.8106 4.40167 32.7539 4.335C32.6972 4.26833 32.6689 4.18333 32.6689 4.08C32.6689 3.98333 32.6889 3.86833 32.7289 3.735C32.7689 3.60167 32.8106 3.47333 32.8539 3.35C32.9106 3.18667 32.9789 2.995 33.0589 2.775C33.1389 2.555 33.2239 2.325 33.3139 2.085C33.4072 1.845 33.5006 1.60833 33.5939 1.375C33.6906 1.14167 33.7839 0.93 33.8739 0.74C33.6439 0.743333 33.4506 0.748333 33.2939 0.755C33.1406 0.761667 33.0022 0.771667 32.8789 0.785C32.7556 0.795 32.6206 0.813333 32.4739 0.84C32.4839 0.726667 32.5422 0.638333 32.6489 0.575C32.7556 0.511666 32.8989 0.466666 33.0789 0.44C33.2589 0.413333 33.4639 0.4 33.6939 0.4C33.9239 0.4 34.1289 0.41 34.3089 0.43C34.4922 0.446666 34.6639 0.463333 34.8239 0.48C34.9839 0.496666 35.1439 0.506666 35.3039 0.51C35.1906 0.613333 35.0606 0.678333 34.9139 0.705C34.7672 0.731667 34.6122 0.745 34.4489 0.745C34.3922 0.745 34.3339 0.745 34.2739 0.745C34.2139 0.741667 34.1539 0.74 34.0939 0.74C33.9872 1.00667 33.8639 1.34333 33.7239 1.75C33.5872 2.15667 33.4489 2.615 33.3089 3.125C33.2356 3.38833 33.1756 3.61333 33.1289 3.8C33.0822 3.98333 33.0589 4.15833 33.0589 4.325C33.0589 4.34167 33.0589 4.36 33.0589 4.38C33.0589 4.4 33.0606 4.41833 33.0639 4.435ZM34.6149 4.19C34.5515 4.19 34.5015 4.13667 34.4649 4.03C34.4282 3.92333 34.4099 3.80333 34.4099 3.67C34.4099 3.51 34.4365 3.32 34.4899 3.1C34.5432 2.88 34.6132 2.64833 34.6999 2.405C34.7865 2.16167 34.8832 1.92333 34.9899 1.69C35.0999 1.45667 35.2115 1.245 35.3249 1.055C35.4382 0.865 35.5449 0.713333 35.6449 0.6C35.7449 0.486667 35.8315 0.43 35.9049 0.43C35.9649 0.43 36.0065 0.466666 36.0299 0.54C36.0565 0.61 36.0699 0.678333 36.0699 0.745C36.0699 0.838333 36.0482 0.951667 36.0049 1.085C35.9649 1.21833 35.9082 1.36167 35.8349 1.515C35.7615 1.665 35.6765 1.81333 35.5799 1.96C35.4832 2.10667 35.3782 2.24167 35.2649 2.365C35.1515 2.485 35.0365 2.58 34.9199 2.65C34.8799 2.74667 34.8449 2.855 34.8149 2.975C34.7882 3.095 34.7682 3.21333 34.7549 3.33C34.7415 3.44333 34.7349 3.545 34.7349 3.635C34.7349 3.67167 34.7349 3.70333 34.7349 3.73C34.7382 3.75667 34.7415 3.78167 34.7449 3.805C34.8249 3.575 34.9149 3.36167 35.0149 3.165C35.1149 2.96833 35.2265 2.81 35.3499 2.69C35.4765 2.57 35.6132 2.51 35.7599 2.51C35.8965 2.51 35.9932 2.55833 36.0499 2.655C36.1099 2.74833 36.1399 2.85 36.1399 2.96C36.1399 3.06333 36.1215 3.16333 36.0849 3.26C36.0515 3.35667 36.0165 3.45 35.9799 3.54C35.9432 3.63 35.9249 3.71667 35.9249 3.8C35.9249 3.86667 35.9382 3.915 35.9649 3.945C35.9949 3.975 36.0315 3.99 36.0749 3.99C36.1515 3.99 36.2365 3.95333 36.3299 3.88C36.4265 3.80667 36.5215 3.71 36.6149 3.59C36.7082 3.46667 36.7882 3.33333 36.8549 3.19L36.9199 3.25C36.8499 3.41333 36.7649 3.56167 36.6649 3.695C36.5649 3.825 36.4549 3.92833 36.3349 4.005C36.2149 4.08167 36.0899 4.12 35.9599 4.12C35.8465 4.12 35.7599 4.09 35.6999 4.03C35.6432 3.97 35.6149 3.895 35.6149 3.805C35.6149 3.735 35.6282 3.65667 35.6549 3.57C35.6815 3.48333 35.7065 3.395 35.7299 3.305C35.7565 3.215 35.7699 3.13 35.7699 3.05C35.7699 2.96333 35.7515 2.90167 35.7149 2.865C35.6782 2.82833 35.6332 2.81 35.5799 2.81C35.4965 2.81 35.4215 2.84333 35.3549 2.91C35.2882 2.97667 35.2265 3.06333 35.1699 3.17C35.1165 3.27333 35.0649 3.38333 35.0149 3.5C34.9682 3.61667 34.9232 3.72833 34.8799 3.835C34.8365 3.93833 34.7932 4.02333 34.7499 4.09C34.7065 4.15667 34.6615 4.19 34.6149 4.19ZM34.9849 2.455C35.0782 2.38167 35.1682 2.28833 35.2549 2.175C35.3449 2.06167 35.4282 1.94167 35.5049 1.815C35.5815 1.685 35.6499 1.55833 35.7099 1.435C35.7699 1.31167 35.8165 1.2 35.8499 1.1C35.8832 1 35.8999 0.925 35.8999 0.875C35.8999 0.848333 35.8932 0.835 35.8799 0.835C35.8565 0.835 35.8082 0.881667 35.7349 0.975C35.6649 1.065 35.5832 1.18667 35.4899 1.34C35.3965 1.49333 35.3049 1.66667 35.2149 1.86C35.1249 2.05333 35.0482 2.25167 34.9849 2.455ZM37.2978 4.22C37.0945 4.22 36.9411 4.16333 36.8378 4.05C36.7378 3.94 36.6878 3.80333 36.6878 3.64C36.6878 3.49 36.7245 3.33167 36.7978 3.165C36.8745 2.99833 36.9745 2.84167 37.0978 2.695C37.2245 2.54833 37.3628 2.43 37.5128 2.34C37.6628 2.24667 37.8111 2.2 37.9578 2.2C38.0345 2.2 38.1045 2.22 38.1678 2.26C38.2345 2.3 38.2678 2.38167 38.2678 2.505C38.2678 2.63167 38.2295 2.75167 38.1528 2.865C38.0795 2.975 37.9811 3.07333 37.8578 3.16C37.7378 3.24667 37.6045 3.31833 37.4578 3.375C37.3145 3.42833 37.1711 3.46167 37.0278 3.475C37.0211 3.50833 37.0161 3.54 37.0128 3.57C37.0095 3.6 37.0078 3.62833 37.0078 3.655C37.0078 3.75833 37.0345 3.855 37.0878 3.945C37.1445 4.03167 37.2495 4.075 37.4028 4.075C37.5461 4.075 37.6878 4.035 37.8278 3.955C37.9678 3.87167 38.0978 3.76333 38.2178 3.63C38.3378 3.49667 38.4395 3.35 38.5228 3.19L38.5828 3.235C38.4928 3.435 38.3778 3.60833 38.2378 3.755C38.1011 3.90167 37.9511 4.015 37.7878 4.095C37.6278 4.17833 37.4645 4.22 37.2978 4.22ZM37.0528 3.38C37.1428 3.35 37.2445 3.30667 37.3578 3.25C37.4711 3.19 37.5795 3.12 37.6828 3.04C37.7895 2.96 37.8761 2.87167 37.9428 2.775C38.0128 2.67833 38.0478 2.57667 38.0478 2.47C38.0478 2.43333 38.0411 2.405 38.0278 2.385C38.0145 2.365 37.9861 2.355 37.9428 2.355C37.8628 2.355 37.7778 2.38667 37.6878 2.45C37.5978 2.51 37.5111 2.59 37.4278 2.69C37.3445 2.79 37.2695 2.9 37.2028 3.02C37.1361 3.14 37.0861 3.26 37.0528 3.38ZM39.9967 4.435C40.0167 4.31833 40.04 4.19833 40.0667 4.075C40.0933 3.955 40.1267 3.82 40.1667 3.67C40.21 3.51667 40.2617 3.34 40.3217 3.14C40.3817 2.94 40.4567 2.70333 40.5467 2.43C40.4933 2.43333 40.4383 2.43833 40.3817 2.445C40.3283 2.45167 40.2733 2.45833 40.2167 2.465C40.22 2.38167 40.2583 2.31667 40.3317 2.27C40.4083 2.22 40.5083 2.18333 40.6317 2.16C40.6883 1.98333 40.7517 1.79167 40.8217 1.585C40.895 1.375 40.9733 1.14833 41.0567 0.905C41.07 0.868333 41.085 0.823333 41.1017 0.77C41.1183 0.713333 41.1267 0.66 41.1267 0.61C41.1267 0.583333 41.1217 0.565 41.1117 0.555C41.105 0.545 41.0867 0.54 41.0567 0.54C40.9767 0.54 40.8983 0.573333 40.8217 0.64C40.7483 0.703333 40.6817 0.785 40.6217 0.885C40.565 0.985 40.52 1.08833 40.4867 1.195C40.4533 1.30167 40.4367 1.39667 40.4367 1.48C40.4367 1.54333 40.445 1.6 40.4617 1.65C40.3517 1.65 40.2733 1.62333 40.2267 1.57C40.1833 1.51333 40.1617 1.445 40.1617 1.365C40.1617 1.25167 40.195 1.13833 40.2617 1.025C40.3283 0.911667 40.4133 0.808333 40.5167 0.715C40.6233 0.618333 40.7333 0.541666 40.8467 0.485C40.9633 0.428333 41.0683 0.4 41.1617 0.4C41.2517 0.4 41.3117 0.425 41.3417 0.475C41.375 0.525 41.3917 0.58 41.3917 0.64C41.3917 0.676667 41.3867 0.713333 41.3767 0.75C41.37 0.786666 41.3617 0.821666 41.3517 0.855L40.9617 2.125C41.0083 2.12167 41.055 2.12 41.1017 2.12C41.1517 2.11667 41.2017 2.115 41.2517 2.115C41.4083 2.115 41.5567 2.12 41.6967 2.13C41.84 2.13667 41.975 2.14667 42.1017 2.16C42.1683 1.94667 42.2333 1.73667 42.2967 1.53C42.3633 1.32333 42.4233 1.14333 42.4767 0.99C42.5333 0.833333 42.5767 0.723333 42.6067 0.66C42.62 0.633333 42.6383 0.6 42.6617 0.56C42.685 0.52 42.715 0.483333 42.7517 0.45C42.7917 0.416667 42.835 0.4 42.8817 0.4C42.835 0.523333 42.7817 0.681667 42.7217 0.875C42.6617 1.065 42.6 1.27333 42.5367 1.5C42.4767 1.72667 42.4167 1.95333 42.3567 2.18C42.4233 2.18333 42.4867 2.18833 42.5467 2.195C42.61 2.19833 42.6717 2.2 42.7317 2.2C42.6583 2.27667 42.5867 2.32333 42.5167 2.34C42.4467 2.35333 42.3783 2.36 42.3117 2.36C42.2817 2.48333 42.2533 2.60333 42.2267 2.72C42.2 2.83333 42.1767 2.94167 42.1567 3.045C42.0967 3.32833 42.0533 3.57 42.0267 3.77C42.0033 3.97 41.9917 4.13167 41.9917 4.255C41.9917 4.295 41.9917 4.32833 41.9917 4.355C41.995 4.385 41.9983 4.41167 42.0017 4.435C41.8717 4.42167 41.7817 4.385 41.7317 4.325C41.6817 4.265 41.6567 4.17167 41.6567 4.045C41.6567 3.95833 41.6667 3.85 41.6867 3.72C41.7067 3.58667 41.7367 3.44333 41.7767 3.29C41.8033 3.19 41.84 3.05833 41.8867 2.895C41.9333 2.72833 41.985 2.55167 42.0417 2.365C41.8383 2.365 41.6683 2.36667 41.5317 2.37C41.395 2.37333 41.2767 2.37667 41.1767 2.38C41.0767 2.38333 40.9767 2.39 40.8767 2.4C40.8167 2.59333 40.7567 2.785 40.6967 2.975C40.6367 3.165 40.5817 3.34 40.5317 3.5C40.4817 3.65667 40.44 3.79 40.4067 3.9C40.3733 4.01 40.3517 4.08167 40.3417 4.115C40.3083 4.22833 40.255 4.31 40.1817 4.36C40.1117 4.41 40.05 4.435 39.9967 4.435ZM43.2255 4.22C43.0222 4.22 42.8689 4.16333 42.7655 4.05C42.6655 3.94 42.6155 3.80333 42.6155 3.64C42.6155 3.49 42.6522 3.33167 42.7255 3.165C42.8022 2.99833 42.9022 2.84167 43.0255 2.695C43.1522 2.54833 43.2905 2.43 43.4405 2.34C43.5905 2.24667 43.7389 2.2 43.8855 2.2C43.9622 2.2 44.0322 2.22 44.0955 2.26C44.1622 2.3 44.1955 2.38167 44.1955 2.505C44.1955 2.63167 44.1572 2.75167 44.0805 2.865C44.0072 2.975 43.9089 3.07333 43.7855 3.16C43.6655 3.24667 43.5322 3.31833 43.3855 3.375C43.2422 3.42833 43.0989 3.46167 42.9555 3.475C42.9489 3.50833 42.9439 3.54 42.9405 3.57C42.9372 3.6 42.9355 3.62833 42.9355 3.655C42.9355 3.75833 42.9622 3.855 43.0155 3.945C43.0722 4.03167 43.1772 4.075 43.3305 4.075C43.4739 4.075 43.6155 4.035 43.7555 3.955C43.8955 3.87167 44.0255 3.76333 44.1455 3.63C44.2655 3.49667 44.3672 3.35 44.4505 3.19L44.5105 3.235C44.4205 3.435 44.3055 3.60833 44.1655 3.755C44.0289 3.90167 43.8789 4.015 43.7155 4.095C43.5555 4.17833 43.3922 4.22 43.2255 4.22ZM42.9805 3.38C43.0705 3.35 43.1722 3.30667 43.2855 3.25C43.3989 3.19 43.5072 3.12 43.6105 3.04C43.7172 2.96 43.8039 2.87167 43.8705 2.775C43.9405 2.67833 43.9755 2.57667 43.9755 2.47C43.9755 2.43333 43.9689 2.405 43.9555 2.385C43.9422 2.365 43.9139 2.355 43.8705 2.355C43.7905 2.355 43.7055 2.38667 43.6155 2.45C43.5255 2.51 43.4389 2.59 43.3555 2.69C43.2722 2.79 43.1972 2.9 43.1305 3.02C43.0639 3.14 43.0139 3.26 42.9805 3.38ZM44.5906 4.235C44.4873 4.235 44.4006 4.2 44.3306 4.13C44.2573 4.06333 44.2206 3.96 44.2206 3.82C44.2206 3.7 44.2473 3.57167 44.3006 3.435C44.3539 3.295 44.4273 3.15833 44.5206 3.025C44.6139 2.88833 44.7189 2.765 44.8356 2.655C44.9556 2.54167 45.0806 2.45167 45.2106 2.385C45.3439 2.31833 45.4756 2.285 45.6056 2.285C45.7356 2.285 45.8439 2.32 45.9306 2.39C46.0173 2.45667 46.0606 2.54667 46.0606 2.66C46.0606 2.74333 46.0373 2.8 45.9906 2.83C45.9473 2.86 45.8889 2.875 45.8156 2.875C45.8323 2.815 45.8406 2.75667 45.8406 2.7C45.8406 2.62333 45.8223 2.55833 45.7856 2.505C45.7489 2.44833 45.6856 2.42 45.5956 2.42C45.5023 2.42 45.4073 2.45333 45.3106 2.52C45.2139 2.58333 45.1206 2.67 45.0306 2.78C44.9406 2.88667 44.8606 3.00333 44.7906 3.13C44.7206 3.25667 44.6656 3.38167 44.6256 3.505C44.5856 3.62833 44.5656 3.73833 44.5656 3.835C44.5656 3.965 44.6106 4.03 44.7006 4.03C44.7773 4.03 44.8606 3.995 44.9506 3.925C45.0406 3.85167 45.1323 3.76 45.2256 3.65C45.3223 3.53667 45.4139 3.42 45.5006 3.3C45.5873 3.18 45.6639 3.07 45.7306 2.97C45.7439 2.95 45.7523 2.94 45.7556 2.94C45.7856 2.94333 45.8256 2.95667 45.8756 2.98C45.9256 3 45.9506 3.02833 45.9506 3.065C45.9506 3.095 45.9356 3.13667 45.9056 3.19C45.8756 3.24 45.8423 3.29833 45.8056 3.365C45.7689 3.43167 45.7356 3.5 45.7056 3.57C45.6756 3.63667 45.6606 3.7 45.6606 3.76C45.6606 3.81 45.6739 3.86 45.7006 3.91C45.7273 3.95667 45.7706 3.98 45.8306 3.98C45.9206 3.98 46.0389 3.915 46.1856 3.785C46.3323 3.65167 46.4806 3.45333 46.6306 3.19L46.6806 3.24C46.6106 3.42 46.5206 3.57833 46.4106 3.715C46.3006 3.85167 46.1823 3.95833 46.0556 4.035C45.9323 4.11167 45.8106 4.15 45.6906 4.15C45.5673 4.15 45.4756 4.11333 45.4156 4.04C45.3589 3.96667 45.3306 3.88667 45.3306 3.8C45.3306 3.75667 45.3356 3.70833 45.3456 3.655C45.2023 3.84833 45.0706 3.99333 44.9506 4.09C44.8339 4.18667 44.7139 4.235 44.5906 4.235ZM47.3933 4.13C47.28 4.13 47.19 4.1 47.1233 4.04C47.06 3.98 47.0283 3.90167 47.0283 3.805C47.0283 3.705 47.0517 3.6 47.0983 3.49C47.145 3.38 47.19 3.27167 47.2333 3.165C47.28 3.055 47.3033 2.95667 47.3033 2.87C47.3033 2.76333 47.2717 2.685 47.2083 2.635C47.1483 2.58167 47.0867 2.53333 47.0233 2.49C46.9467 2.68667 46.8667 2.87333 46.7833 3.05C46.7 3.22667 46.6317 3.36 46.5783 3.45L46.5333 3.365C46.58 3.27833 46.64 3.15167 46.7133 2.985C46.79 2.81833 46.865 2.62833 46.9383 2.415C46.905 2.38167 46.8883 2.34167 46.8883 2.295C46.8883 2.195 46.9167 2.11333 46.9733 2.05C47.03 1.98667 47.0717 1.955 47.0983 1.955C47.135 1.955 47.155 1.97167 47.1583 2.005C47.165 2.035 47.1683 2.05833 47.1683 2.075C47.1683 2.09167 47.1583 2.125 47.1383 2.175C47.1217 2.22167 47.1133 2.25 47.1133 2.26C47.1133 2.30667 47.1383 2.35 47.1883 2.39C47.2417 2.42667 47.3017 2.47 47.3683 2.52C47.435 2.56667 47.4933 2.625 47.5433 2.695C47.5967 2.76167 47.6233 2.84833 47.6233 2.955C47.6233 3.055 47.6017 3.15667 47.5583 3.26C47.5183 3.36333 47.4767 3.46167 47.4333 3.555C47.3933 3.64833 47.3733 3.73 47.3733 3.8C47.3733 3.86 47.3883 3.9 47.4183 3.92C47.4483 3.94 47.4833 3.95 47.5233 3.95C47.6033 3.95 47.685 3.925 47.7683 3.875C47.855 3.825 47.9383 3.76167 48.0183 3.685C48.0983 3.60833 48.17 3.52833 48.2333 3.445C48.2967 3.35833 48.3433 3.27833 48.3733 3.205L48.4383 3.255C48.375 3.395 48.2883 3.53333 48.1783 3.67C48.0683 3.80333 47.945 3.91333 47.8083 4C47.675 4.08667 47.5367 4.13 47.3933 4.13ZM48.6916 4.23C48.3949 4.23 48.2466 4.065 48.2466 3.735C48.2466 3.58833 48.2733 3.40833 48.3266 3.195C48.3833 2.97833 48.4533 2.75667 48.5366 2.53C48.5033 2.52333 48.4716 2.51833 48.4416 2.515C48.4116 2.50833 48.3833 2.5 48.3566 2.49V2.4C48.3833 2.40333 48.4149 2.40667 48.4516 2.41C48.4883 2.41333 48.5299 2.41667 48.5766 2.42C48.6466 2.24 48.7216 2.06667 48.8016 1.9C48.8816 1.73 48.9599 1.58 49.0366 1.45C49.1166 1.31667 49.1916 1.21167 49.2616 1.135C49.3349 1.055 49.3966 1.015 49.4466 1.015C49.4733 1.015 49.4966 1.025 49.5166 1.045C49.5399 1.06167 49.5516 1.08833 49.5516 1.125C49.5516 1.18167 49.5166 1.275 49.4466 1.405C49.3766 1.53167 49.2899 1.68333 49.1866 1.86C49.0833 2.03667 48.9833 2.22833 48.8866 2.435H49.0716C49.1816 2.435 49.2966 2.43333 49.4166 2.43C49.5399 2.42667 49.6633 2.41833 49.7866 2.405V2.495C49.4233 2.535 49.1299 2.555 48.9066 2.555H48.8316C48.7549 2.73167 48.6899 2.91333 48.6366 3.1C48.5833 3.28667 48.5566 3.46833 48.5566 3.645C48.5566 3.78833 48.5783 3.89167 48.6216 3.955C48.6649 4.015 48.7366 4.045 48.8366 4.045C49.0099 4.045 49.1799 3.96833 49.3466 3.815C49.5133 3.66167 49.6599 3.45333 49.7866 3.19L49.8516 3.24C49.7716 3.42667 49.6699 3.595 49.5466 3.745C49.4266 3.895 49.2933 4.01333 49.1466 4.1C48.9999 4.18667 48.8483 4.23 48.6916 4.23ZM50.9574 1.12C50.934 1.10333 50.9124 1.08333 50.8924 1.06C50.8724 1.03667 50.8624 1.01 50.8624 0.98C50.8624 0.936666 50.8857 0.881666 50.9324 0.815C50.979 0.748333 51.0274 0.678333 51.0774 0.605C51.1274 0.528333 51.1607 0.46 51.1774 0.4C51.2107 0.4 51.239 0.415 51.2624 0.445C51.289 0.471667 51.3024 0.503333 51.3024 0.54C51.3024 0.583333 51.2824 0.638333 51.2424 0.705C51.2024 0.771666 51.154 0.841666 51.0974 0.915C51.044 0.988333 50.9974 1.05667 50.9574 1.12ZM50.4074 1.12C50.384 1.10333 50.3624 1.08333 50.3424 1.06C50.3224 1.03667 50.3124 1.01 50.3124 0.98C50.3124 0.936666 50.3357 0.881666 50.3824 0.815C50.429 0.748333 50.4774 0.678333 50.5274 0.605C50.5774 0.528333 50.6107 0.46 50.6274 0.4C50.6607 0.4 50.689 0.415 50.7124 0.445C50.739 0.471667 50.7524 0.503333 50.7524 0.54C50.7524 0.583333 50.7324 0.638333 50.6924 0.705C50.6524 0.771666 50.604 0.841666 50.5474 0.915C50.494 0.988333 50.4474 1.05667 50.4074 1.12Z" fill="black"/>
</svg>
