<svg width="73" height="10" viewBox="0 0 73 10" fill="none" xmlns="http://www.w3.org/2000/svg">
<path id="Title" d="M4.64 9.21C4.49333 9.21 4.32 9.11667 4.12 8.93C3.92667 8.75 3.72333 8.51 3.51 8.21C3.29667 7.91667 3.08333 7.59333 2.87 7.24C2.66333 6.88667 2.47 6.53333 2.29 6.18C2.11667 5.82667 1.97 5.51 1.85 5.23C1.66333 5.88333 1.48333 6.52667 1.31 7.16C1.13667 7.78667 0.973333 8.35667 0.82 8.87C0.653333 8.87 0.5 8.82333 0.36 8.73C0.226667 8.63667 0.16 8.51667 0.16 8.37C0.16 8.29667 0.176667 8.20667 0.21 8.1C0.243333 8 0.273333 7.90667 0.3 7.82C0.513333 7.16667 0.716667 6.55667 0.91 5.99C1.10333 5.41667 1.29667 4.86333 1.49 4.33C1.69 3.79667 1.89667 3.26333 2.11 2.73C2.33 2.19667 2.57 1.63667 2.83 1.05C2.55 1.09667 2.30667 1.16667 2.1 1.26C1.89333 1.34667 1.72667 1.43 1.6 1.51C1.47333 1.58333 1.38667 1.62 1.34 1.62C1.3 1.62 1.23667 1.58667 1.15 1.52C1.07 1.45333 1.03 1.39667 1.03 1.35C1.28333 1.23667 1.61 1.11667 2.01 0.99C2.41 0.863333 2.83333 0.8 3.28 0.8C3.56667 0.8 3.85667 0.836666 4.15 0.909999C4.45 0.976666 4.72333 1.08667 4.97 1.24C5.22333 1.38667 5.42667 1.58 5.58 1.82C5.73333 2.05333 5.81 2.33667 5.81 2.67C5.81 2.99667 5.73333 3.28 5.58 3.52C5.43333 3.75333 5.23667 3.95 4.99 4.11C4.75 4.27 4.48667 4.4 4.2 4.5C3.91333 4.59333 3.63 4.66667 3.35 4.72C3.07 4.76667 2.81667 4.8 2.59 4.82C2.36333 4.83333 2.19333 4.84 2.08 4.84C2.28667 5.19333 2.48333 5.53667 2.67 5.87C2.85667 6.20333 3.06 6.53667 3.28 6.87C3.5 7.19667 3.76 7.52667 4.06 7.86C4.36 8.19333 4.72333 8.53333 5.15 8.88C5.11 8.96667 5.03667 9.04333 4.93 9.11C4.83 9.17667 4.73333 9.21 4.64 9.21ZM2.01 4.68C2.37 4.66 2.73333 4.60333 3.1 4.51C3.47333 4.41 3.81333 4.27333 4.12 4.1C4.42667 3.92 4.67333 3.69667 4.86 3.43C5.04667 3.15667 5.14 2.83333 5.14 2.46C5.14 2.09333 5.05333 1.80667 4.88 1.6C4.70667 1.38667 4.48333 1.23667 4.21 1.15C3.93667 1.05667 3.65 1.01 3.35 1.01C3.12333 1.47 2.89667 2.02333 2.67 2.67C2.44333 3.31 2.22333 3.98 2.01 4.68ZM7.43758 3.68C7.33091 3.68 7.23424 3.65333 7.14758 3.6C7.06758 3.54667 7.02758 3.46333 7.02758 3.35C7.02758 3.21 7.10758 3.09 7.26758 2.99C7.43424 2.88333 7.59758 2.83 7.75758 2.83C7.85758 2.83 7.93758 2.85333 7.99758 2.9C8.05758 2.94667 8.08758 3.02667 8.08758 3.14C8.08758 3.26667 8.01758 3.39 7.87758 3.51C7.74424 3.62333 7.59758 3.68 7.43758 3.68ZM6.23758 8.26C5.97758 8.26 5.78424 8.17667 5.65758 8.01C5.53091 7.85 5.46758 7.65333 5.46758 7.42C5.46758 7.26667 5.49424 7.07333 5.54758 6.84C5.60758 6.60667 5.68424 6.36333 5.77758 6.11C5.87091 5.85 5.97758 5.60667 6.09758 5.38C6.22424 5.15333 6.35758 4.97 6.49758 4.83C6.63758 4.68333 6.77424 4.61 6.90758 4.61C6.96758 4.61 7.01758 4.63 7.05758 4.67C7.10424 4.70333 7.12758 4.75667 7.12758 4.83C7.12758 4.91 7.07424 5.04 6.96758 5.22C6.86758 5.4 6.74758 5.60667 6.60758 5.84C6.46758 6.07333 6.34424 6.32 6.23758 6.58C6.13758 6.83333 6.08758 7.07667 6.08758 7.31C6.08758 7.55 6.12758 7.71 6.20758 7.79C6.28758 7.87 6.41091 7.91 6.57758 7.91C6.80424 7.91 7.04424 7.79667 7.29758 7.57C7.55758 7.34333 7.83091 6.94667 8.11758 6.38L8.20758 6.48C8.01424 7.05333 7.73424 7.49333 7.36758 7.8C7.00758 8.10667 6.63091 8.26 6.23758 8.26ZM8.97969 8.51C8.66635 8.51 8.41635 8.44 8.22969 8.3C8.04969 8.16667 7.92302 8 7.84969 7.8C7.76969 7.6 7.72969 7.4 7.72969 7.2C7.72969 7 7.75635 6.84667 7.80969 6.74C7.86302 6.63333 7.92635 6.55333 7.99969 6.5C8.07969 6.44667 8.15302 6.40667 8.21969 6.38C8.29302 6.35333 8.34302 6.32667 8.36969 6.3C8.56969 6.08 8.75302 5.85 8.91969 5.61C9.08635 5.37 9.23302 5.11667 9.35969 4.85V4.73C9.35969 4.48333 9.39969 4.31 9.47969 4.21C9.56635 4.10333 9.65635 4.05 9.74969 4.05C9.85635 4.05 9.90969 4.09333 9.90969 4.18C9.90969 4.21333 9.89969 4.26667 9.87969 4.34C9.85969 4.41333 9.84969 4.50667 9.84969 4.62C9.84969 4.84 9.89302 5.08 9.97969 5.34C10.0664 5.59333 10.153 5.86333 10.2397 6.15C10.3264 6.43 10.3697 6.72333 10.3697 7.03C10.3697 7.20333 10.3497 7.36667 10.3097 7.52C10.543 7.48 10.763 7.37667 10.9697 7.21C11.1764 7.03667 11.3764 6.76333 11.5697 6.39L11.6597 6.49C11.533 6.85667 11.343 7.13667 11.0897 7.33C10.8364 7.51667 10.5597 7.63333 10.2597 7.68C10.153 7.96667 9.98302 8.17667 9.74969 8.31C9.52302 8.44333 9.26635 8.51 8.97969 8.51ZM9.67969 7.51C9.69302 7.44333 9.70302 7.37333 9.70969 7.3C9.71635 7.22667 9.71969 7.14 9.71969 7.04C9.71969 6.72667 9.67969 6.41667 9.59969 6.11C9.52635 5.79667 9.46302 5.50333 9.40969 5.23C9.25635 5.48333 9.09302 5.72667 8.91969 5.96C8.75302 6.18667 8.59302 6.37667 8.43969 6.53C8.53969 6.74333 8.69302 6.94333 8.89969 7.13C9.11302 7.31667 9.37302 7.44333 9.67969 7.51ZM8.99969 8.16C9.07969 8.16 9.18635 8.13333 9.31969 8.08C9.45302 8.02667 9.55635 7.89 9.62969 7.67C9.34969 7.61667 9.09969 7.50667 8.87969 7.34C8.66635 7.17333 8.50635 7.00667 8.39969 6.84C8.25302 6.84667 8.17969 6.96333 8.17969 7.19C8.17969 7.43 8.24969 7.65333 8.38969 7.86C8.53635 8.06 8.73969 8.16 8.99969 8.16ZM12.807 2.24C12.7603 2.20667 12.717 2.16667 12.677 2.12C12.637 2.07333 12.617 2.02 12.617 1.96C12.617 1.87333 12.6636 1.76333 12.757 1.63C12.8503 1.49 12.947 1.34667 13.047 1.2C13.147 1.05333 13.2136 0.92 13.247 0.8C13.3136 0.8 13.3703 0.83 13.417 0.89C13.4703 0.943333 13.497 1.00667 13.497 1.08C13.497 1.16667 13.457 1.27667 13.377 1.41C13.297 1.54333 13.2003 1.68333 13.087 1.83C12.9803 1.97667 12.887 2.11333 12.807 2.24ZM17.2546 8.87C16.8946 8.87 16.5546 8.80333 16.2346 8.67C15.9146 8.54333 15.6546 8.34667 15.4546 8.08C15.2613 7.81333 15.1646 7.48 15.1646 7.08C15.1646 6.73333 15.2313 6.46333 15.3646 6.27C15.5046 6.07667 15.6746 5.94 15.8746 5.86C16.0746 5.78 16.2646 5.74 16.4446 5.74C16.2646 5.93333 16.1279 6.14667 16.0346 6.38C15.9413 6.61333 15.8946 6.84667 15.8946 7.08C15.8946 7.32667 15.9479 7.55667 16.0546 7.77C16.1679 7.98333 16.3379 8.15333 16.5646 8.28C16.7913 8.41333 17.0779 8.48 17.4246 8.48C17.7246 8.48 18.0179 8.42333 18.3046 8.31C18.5913 8.20333 18.8246 8.04333 19.0046 7.83C19.1913 7.61 19.2846 7.34 19.2846 7.02C19.2846 6.73333 19.2113 6.48667 19.0646 6.28C18.9179 6.07333 18.7279 5.89 18.4946 5.73C18.2679 5.57 18.0246 5.41667 17.7646 5.27C17.5046 5.12333 17.2579 4.97 17.0246 4.81C16.7979 4.64333 16.6113 4.45333 16.4646 4.24C16.3179 4.02667 16.2446 3.77 16.2446 3.47C16.2446 3.19 16.3113 2.89667 16.4446 2.59C16.5779 2.28333 16.7679 1.99333 17.0146 1.72C17.2679 1.44667 17.5679 1.22667 17.9146 1.06C18.2679 0.886666 18.6613 0.8 19.0946 0.8C19.4879 0.8 19.7613 0.896666 19.9146 1.09C20.0679 1.27667 20.1446 1.51333 20.1446 1.8C20.1446 2.04 20.1013 2.3 20.0146 2.58C19.9346 2.85333 19.8346 3.11667 19.7146 3.37C19.5946 3.61667 19.4813 3.82667 19.3746 4C19.2546 3.97333 19.1679 3.92333 19.1146 3.85C19.0679 3.77 19.0446 3.67667 19.0446 3.57C19.0446 3.43 19.0746 3.27 19.1346 3.09C19.1946 2.91 19.2613 2.72333 19.3346 2.53C19.4146 2.33667 19.4846 2.15 19.5446 1.97C19.6046 1.78333 19.6346 1.61667 19.6346 1.47C19.6346 1.33667 19.5946 1.23333 19.5146 1.16C19.4346 1.08 19.2879 1.04 19.0746 1.04C18.7613 1.04 18.4713 1.11333 18.2046 1.26C17.9379 1.40667 17.7046 1.59667 17.5046 1.83C17.3046 2.05667 17.1479 2.29667 17.0346 2.55C16.9279 2.80333 16.8746 3.03333 16.8746 3.24C16.8746 3.48667 16.9446 3.7 17.0846 3.88C17.2313 4.05333 17.4179 4.21333 17.6446 4.36C17.8713 4.5 18.1113 4.64333 18.3646 4.79C18.6246 4.93 18.8679 5.08667 19.0946 5.26C19.3213 5.43333 19.5046 5.64 19.6446 5.88C19.7913 6.11333 19.8646 6.4 19.8646 6.74C19.8646 7.08667 19.7879 7.39333 19.6346 7.66C19.4813 7.92 19.2746 8.14 19.0146 8.32C18.7613 8.5 18.4813 8.63667 18.1746 8.73C17.8679 8.82333 17.5613 8.87 17.2546 8.87ZM23.4059 8.39C23.1993 8.39 23.0559 8.29333 22.9759 8.1C22.9026 7.91333 22.8659 7.68667 22.8659 7.42C22.8659 7.28667 22.8726 7.14333 22.8859 6.99C22.8993 6.83 22.9159 6.67333 22.9359 6.52C22.7893 6.81333 22.6293 7.09667 22.4559 7.37C22.2893 7.64333 22.1126 7.86667 21.9259 8.04C21.7393 8.21333 21.5426 8.3 21.3359 8.3C21.1159 8.3 20.9359 8.2 20.7959 8C20.6559 7.8 20.5859 7.56333 20.5859 7.29C20.5859 7.09667 20.6159 6.87333 20.6759 6.62C20.7426 6.36667 20.8226 6.11667 20.9159 5.87C21.0093 5.62333 21.1059 5.42 21.2059 5.26C21.3059 5.1 21.3926 5.02 21.4659 5.02C21.4993 5.02 21.5693 5.04 21.6759 5.08C21.7826 5.11333 21.8359 5.16 21.8359 5.22C21.7626 5.33333 21.6726 5.50667 21.5659 5.74C21.4593 5.97333 21.3659 6.22667 21.2859 6.5C21.2059 6.76667 21.1659 7.01 21.1659 7.23C21.1659 7.28333 21.1726 7.36667 21.1859 7.48C21.1993 7.58667 21.2293 7.68333 21.2759 7.77C21.3293 7.85667 21.4093 7.9 21.5159 7.9C21.6693 7.9 21.8326 7.80333 22.0059 7.61C22.1793 7.41667 22.3526 7.17333 22.5259 6.88C22.6993 6.58667 22.8626 6.29 23.0159 5.99C23.0693 5.71667 23.1126 5.51667 23.1459 5.39C23.1859 5.26333 23.2259 5.18333 23.2659 5.15C23.3059 5.11 23.3559 5.09 23.4159 5.09C23.5026 5.09 23.5726 5.11 23.6259 5.15C23.6793 5.18333 23.7059 5.23667 23.7059 5.31C23.7059 5.33 23.6993 5.36667 23.6859 5.42C23.6393 5.58 23.5926 5.78333 23.5459 6.03C23.5059 6.27 23.4726 6.52 23.4459 6.78C23.4193 7.04 23.4059 7.28333 23.4059 7.51C23.4059 7.83667 23.4793 8 23.6259 8C23.7259 8 23.8426 7.94 23.9759 7.82C24.1093 7.69333 24.2459 7.53 24.3859 7.33C24.5326 7.12333 24.6726 6.9 24.8059 6.66C24.9459 6.42 25.0693 6.18333 25.1759 5.95C25.1759 5.60333 25.1993 5.34 25.2459 5.16C25.2993 4.97333 25.3626 4.84667 25.4359 4.78C25.5159 4.71333 25.5959 4.68 25.6759 4.68C25.8026 4.68 25.8926 4.72667 25.9459 4.82C26.0059 4.90667 26.0359 4.98667 26.0359 5.06C26.0359 5.10667 26.0259 5.15667 26.0059 5.21C25.9859 5.25667 25.9593 5.31 25.9259 5.37C25.8726 5.47 25.8193 5.6 25.7659 5.76C25.7126 5.91333 25.6859 6.12667 25.6859 6.4C25.6859 6.50667 25.6959 6.62 25.7159 6.74C25.7359 6.86 25.7793 6.96 25.8459 7.04C25.9126 7.12 26.0159 7.16 26.1559 7.16C26.2959 7.16 26.4293 7.10667 26.5559 7C26.6893 6.88667 26.8193 6.69333 26.9459 6.42L27.0759 6.52C26.9293 6.85333 26.7659 7.07667 26.5859 7.19C26.4126 7.30333 26.2459 7.36 26.0859 7.36C25.6593 7.36 25.3793 7.08 25.2459 6.52C25.0793 6.82667 24.8926 7.12333 24.6859 7.41C24.4793 7.69667 24.2659 7.93 24.0459 8.11C23.8259 8.29667 23.6126 8.39 23.4059 8.39ZM31.1578 8.49C30.7511 8.49 30.4478 8.36667 30.2478 8.12C30.0545 7.87333 29.9578 7.57667 29.9578 7.23C29.6711 7.61 29.3411 7.90667 28.9678 8.12C28.5945 8.33333 28.2178 8.44 27.8378 8.44C27.4311 8.44 27.1245 8.32667 26.9178 8.1C26.7178 7.88 26.6178 7.60667 26.6178 7.28C26.6178 6.98 26.6911 6.66333 26.8378 6.33C26.9911 5.99667 27.1911 5.68333 27.4378 5.39C27.6911 5.09667 27.9678 4.86 28.2678 4.68C28.5678 4.49333 28.8645 4.4 29.1578 4.4C29.3111 4.4 29.4511 4.44 29.5778 4.52C29.7111 4.6 29.7778 4.76333 29.7778 5.01C29.7778 5.26333 29.7011 5.50333 29.5478 5.73C29.4011 5.95 29.2045 6.14667 28.9578 6.32C28.7178 6.49333 28.4511 6.63667 28.1578 6.75C27.8711 6.85667 27.5845 6.92333 27.2978 6.95C27.2845 7.01667 27.2745 7.08 27.2678 7.14C27.2611 7.2 27.2578 7.25667 27.2578 7.31C27.2578 7.51667 27.3111 7.71 27.4178 7.89C27.5311 8.06333 27.7411 8.15 28.0478 8.15C28.4011 8.15 28.7511 8.02667 29.0978 7.78C29.4445 7.52667 29.7478 7.21667 30.0078 6.85C30.0678 6.57667 30.1745 6.30333 30.3278 6.03C30.4811 5.75667 30.6645 5.51 30.8778 5.29C31.0978 5.06333 31.3345 4.88333 31.5878 4.75C31.8411 4.61 32.0978 4.54 32.3578 4.54C32.5111 4.54 32.6511 4.58 32.7778 4.66C32.9111 4.74 32.9778 4.90333 32.9778 5.15C32.9778 5.49 32.8611 5.79 32.6278 6.05C32.4011 6.30333 32.1078 6.50667 31.7478 6.66C31.3878 6.81333 31.0178 6.91 30.6378 6.95C30.6245 7.01667 30.6145 7.08 30.6078 7.14C30.6011 7.2 30.5978 7.25667 30.5978 7.31C30.5978 7.44333 30.6178 7.58 30.6578 7.72C30.7045 7.86 30.7811 7.97333 30.8878 8.06C31.0011 8.15333 31.1611 8.2 31.3678 8.2C31.6545 8.2 31.9411 8.11667 32.2278 7.95C32.5145 7.77667 32.7811 7.55333 33.0278 7.28C33.2745 7 33.4811 6.7 33.6478 6.38L33.7678 6.47C33.5878 6.87 33.3545 7.22333 33.0678 7.53C32.7878 7.83 32.4811 8.06333 32.1478 8.23C31.8211 8.40333 31.4911 8.49 31.1578 8.49ZM27.3478 6.76C27.5278 6.7 27.7311 6.61333 27.9578 6.5C28.1845 6.38 28.4011 6.24 28.6078 6.08C28.8211 5.92 28.9945 5.74333 29.1278 5.55C29.2678 5.35667 29.3378 5.15333 29.3378 4.94C29.3378 4.86667 29.3245 4.81 29.2978 4.77C29.2711 4.73 29.2145 4.71 29.1278 4.71C28.9678 4.71 28.7978 4.77333 28.6178 4.9C28.4378 5.02 28.2645 5.18 28.0978 5.38C27.9311 5.58 27.7811 5.8 27.6478 6.04C27.5145 6.28 27.4145 6.52 27.3478 6.76ZM30.6878 6.76C30.8678 6.7 31.0645 6.62 31.2778 6.52C31.4911 6.42 31.6945 6.30333 31.8878 6.17C32.0811 6.03 32.2411 5.87333 32.3678 5.7C32.4945 5.52 32.5578 5.32333 32.5578 5.11C32.5578 5.03667 32.5411 4.97667 32.5078 4.93C32.4745 4.87667 32.4145 4.85 32.3278 4.85C32.1145 4.85 31.8978 4.94333 31.6778 5.13C31.4645 5.31667 31.2678 5.55667 31.0878 5.85C30.9145 6.13667 30.7811 6.44 30.6878 6.76ZM34.2875 8.46C33.6942 8.46 33.3975 8.13 33.3975 7.47C33.3975 7.17667 33.4508 6.81667 33.5575 6.39C33.6708 5.95667 33.8108 5.51333 33.9775 5.06C33.9108 5.04667 33.8475 5.03667 33.7875 5.03C33.7275 5.01667 33.6708 5 33.6175 4.98V4.8C33.6708 4.80667 33.7342 4.81333 33.8075 4.82C33.8808 4.82667 33.9642 4.83333 34.0575 4.84C34.1975 4.48 34.3475 4.13333 34.5075 3.8C34.6675 3.46 34.8242 3.16 34.9775 2.9C35.1375 2.63333 35.2875 2.42333 35.4275 2.27C35.5742 2.11 35.6975 2.03 35.7975 2.03C35.8508 2.03 35.8975 2.05 35.9375 2.09C35.9842 2.12333 36.0075 2.17667 36.0075 2.25C36.0075 2.36333 35.9375 2.55 35.7975 2.81C35.6575 3.06333 35.4842 3.36667 35.2775 3.72C35.0708 4.07333 34.8708 4.45667 34.6775 4.87H35.0475C35.2675 4.87 35.4975 4.86667 35.7375 4.86C35.9842 4.85333 36.2308 4.83667 36.4775 4.81V4.99C35.7508 5.07 35.1642 5.11 34.7175 5.11H34.5675C34.4142 5.46333 34.2842 5.82667 34.1775 6.2C34.0708 6.57333 34.0175 6.93667 34.0175 7.29C34.0175 7.57667 34.0608 7.78333 34.1475 7.91C34.2342 8.03 34.3775 8.09 34.5775 8.09C34.9242 8.09 35.2642 7.93667 35.5975 7.63C35.9308 7.32333 36.2242 6.90667 36.4775 6.38L36.6075 6.48C36.4475 6.85333 36.2442 7.19 35.9975 7.49C35.7575 7.79 35.4908 8.02667 35.1975 8.2C34.9042 8.37333 34.6008 8.46 34.2875 8.46ZM37.3391 8.51C37.0257 8.51 36.7757 8.44 36.5891 8.3C36.4091 8.16667 36.2824 8 36.2091 7.8C36.1291 7.6 36.0891 7.4 36.0891 7.2C36.0891 7 36.1157 6.84667 36.1691 6.74C36.2224 6.63333 36.2857 6.55333 36.3591 6.5C36.4391 6.44667 36.5124 6.40667 36.5791 6.38C36.6524 6.35333 36.7024 6.32667 36.7291 6.3C36.9291 6.08 37.1124 5.85 37.2791 5.61C37.4457 5.37 37.5924 5.11667 37.7191 4.85V4.73C37.7191 4.48333 37.7591 4.31 37.8391 4.21C37.9257 4.10333 38.0157 4.05 38.1091 4.05C38.2157 4.05 38.2691 4.09333 38.2691 4.18C38.2691 4.21333 38.2591 4.26667 38.2391 4.34C38.2191 4.41333 38.2091 4.50667 38.2091 4.62C38.2091 4.84 38.2524 5.08 38.3391 5.34C38.4257 5.59333 38.5124 5.86333 38.5991 6.15C38.6857 6.43 38.7291 6.72333 38.7291 7.03C38.7291 7.20333 38.7091 7.36667 38.6691 7.52C38.9024 7.48 39.1224 7.37667 39.3291 7.21C39.5357 7.03667 39.7357 6.76333 39.9291 6.39L40.0191 6.49C39.8924 6.85667 39.7024 7.13667 39.4491 7.33C39.1957 7.51667 38.9191 7.63333 38.6191 7.68C38.5124 7.96667 38.3424 8.17667 38.1091 8.31C37.8824 8.44333 37.6257 8.51 37.3391 8.51ZM38.0391 7.51C38.0524 7.44333 38.0624 7.37333 38.0691 7.3C38.0757 7.22667 38.0791 7.14 38.0791 7.04C38.0791 6.72667 38.0391 6.41667 37.9591 6.11C37.8857 5.79667 37.8224 5.50333 37.7691 5.23C37.6157 5.48333 37.4524 5.72667 37.2791 5.96C37.1124 6.18667 36.9524 6.37667 36.7991 6.53C36.8991 6.74333 37.0524 6.94333 37.2591 7.13C37.4724 7.31667 37.7324 7.44333 38.0391 7.51ZM37.3591 8.16C37.4391 8.16 37.5457 8.13333 37.6791 8.08C37.8124 8.02667 37.9157 7.89 37.9891 7.67C37.7091 7.61667 37.4591 7.50667 37.2391 7.34C37.0257 7.17333 36.8657 7.00667 36.7591 6.84C36.6124 6.84667 36.5391 6.96333 36.5391 7.19C36.5391 7.43 36.6091 7.65333 36.7491 7.86C36.8957 8.06 37.0991 8.16 37.3591 8.16ZM44.254 8.87C43.854 8.87 43.5073 8.78667 43.214 8.62C42.9207 8.45333 42.694 8.23333 42.534 7.96C42.3807 7.68 42.304 7.37667 42.304 7.05C42.304 6.74333 42.3707 6.44333 42.504 6.15C42.6373 5.85667 42.8207 5.59 43.054 5.35C43.294 5.10333 43.5707 4.90333 43.884 4.75C44.1973 4.59 44.534 4.49333 44.894 4.46C44.634 4.24667 44.4407 4 44.314 3.72C44.194 3.44 44.134 3.16 44.134 2.88C44.134 2.52667 44.224 2.19333 44.404 1.88C44.584 1.56 44.8273 1.30333 45.134 1.11C45.4473 0.91 45.804 0.81 46.204 0.81C46.9307 0.81 47.294 1.16333 47.294 1.87C47.294 2.11667 47.254 2.36 47.174 2.6C47.094 2.83333 46.994 3.02667 46.874 3.18C46.7607 3.32667 46.6473 3.4 46.534 3.4C46.4607 3.4 46.3907 3.37 46.324 3.31C46.2573 3.24333 46.204 3.16667 46.164 3.08C46.3973 2.87333 46.5907 2.66 46.744 2.44C46.904 2.21333 46.984 1.97 46.984 1.71C46.984 1.50333 46.9273 1.33667 46.814 1.21C46.7073 1.07667 46.5373 1.01 46.304 1.01C45.9907 1.01 45.7273 1.10667 45.514 1.3C45.3007 1.48667 45.1373 1.73667 45.024 2.05C44.9173 2.35667 44.864 2.69 44.864 3.05C44.864 3.29 44.9007 3.55 44.974 3.83C45.0473 4.11 45.204 4.35333 45.444 4.56C44.9973 4.63333 44.6073 4.80333 44.274 5.07C43.9473 5.33667 43.6907 5.65 43.504 6.01C43.324 6.37 43.234 6.72667 43.234 7.08C43.234 7.3 43.274 7.52333 43.354 7.75C43.4407 7.97 43.5773 8.15333 43.764 8.3C43.9507 8.45333 44.2007 8.53 44.514 8.53C44.8673 8.53 45.2073 8.44 45.534 8.26C45.8673 8.08 46.1673 7.84 46.434 7.54C46.7073 7.24 46.9307 6.90333 47.104 6.53C47.2773 6.15 47.3873 5.76 47.434 5.36C47.294 5.36667 47.164 5.37667 47.044 5.39C46.9307 5.40333 46.804 5.42333 46.664 5.45C46.524 5.47 46.344 5.50333 46.124 5.55C46.1373 5.27 46.244 5.08333 46.444 4.99C46.644 4.89667 46.884 4.85 47.164 4.85C47.4573 4.85 47.734 4.87667 47.994 4.93C48.254 4.98333 48.4873 5.01333 48.694 5.02C48.6207 5.17333 48.5473 5.26667 48.474 5.3C48.4073 5.32667 48.3407 5.34 48.274 5.34C48.1607 5.34 48.054 5.34333 47.954 5.35C47.8607 5.35 47.774 5.35 47.694 5.35C47.6473 5.81 47.5207 6.25 47.314 6.67C47.114 7.09 46.854 7.46667 46.534 7.8C46.2207 8.12667 45.8673 8.38667 45.474 8.58C45.0873 8.77333 44.6807 8.87 44.254 8.87ZM52.9638 8.87C52.6638 8.87 52.4571 8.80333 52.3438 8.67C52.2304 8.53667 52.1738 8.36667 52.1738 8.16C52.1738 7.96667 52.2138 7.73667 52.2938 7.47C52.3738 7.20333 52.4571 6.94667 52.5438 6.7C52.6571 6.37333 52.7938 5.99 52.9538 5.55C53.1138 5.11 53.2838 4.65 53.4638 4.17C53.6504 3.69 53.8371 3.21667 54.0238 2.75C54.2171 2.28333 54.4038 1.86 54.5838 1.48C54.1238 1.48667 53.7371 1.49667 53.4238 1.51C53.1171 1.52333 52.8404 1.54333 52.5938 1.57C52.3471 1.59 52.0771 1.62667 51.7838 1.68C51.8038 1.45333 51.9204 1.27667 52.1338 1.15C52.3471 1.02333 52.6338 0.933333 52.9938 0.88C53.3538 0.826666 53.7638 0.8 54.2238 0.8C54.6838 0.8 55.0938 0.82 55.4538 0.86C55.8204 0.893333 56.1638 0.926666 56.4838 0.959999C56.8038 0.993333 57.1238 1.01333 57.4438 1.02C57.2171 1.22667 56.9571 1.35667 56.6638 1.41C56.3704 1.46333 56.0604 1.49 55.7338 1.49C55.6204 1.49 55.5038 1.49 55.3838 1.49C55.2638 1.48333 55.1438 1.48 55.0238 1.48C54.8104 2.01333 54.5638 2.68667 54.2838 3.5C54.0104 4.31333 53.7338 5.23 53.4538 6.25C53.3071 6.77667 53.1871 7.22667 53.0938 7.6C53.0004 7.96667 52.9538 8.31667 52.9538 8.65C52.9538 8.68333 52.9538 8.72 52.9538 8.76C52.9538 8.8 52.9571 8.83667 52.9638 8.87ZM56.8374 8.26C56.6108 8.26 56.4308 8.2 56.2974 8.08C56.1708 7.96 56.1074 7.80333 56.1074 7.61C56.1074 7.41 56.1541 7.2 56.2474 6.98C56.3408 6.76 56.4308 6.54333 56.5174 6.33C56.6108 6.11 56.6574 5.91333 56.6574 5.74C56.6574 5.52667 56.5941 5.37 56.4674 5.27C56.3474 5.16333 56.2241 5.06667 56.0974 4.98C55.9441 5.37333 55.7841 5.74667 55.6174 6.1C55.4508 6.45333 55.3141 6.72 55.2074 6.9L55.1174 6.73C55.2108 6.55667 55.3308 6.30333 55.4774 5.97C55.6308 5.63667 55.7808 5.25667 55.9274 4.83C55.8608 4.76333 55.8274 4.68333 55.8274 4.59C55.8274 4.39 55.8841 4.22667 55.9974 4.1C56.1108 3.97333 56.1941 3.91 56.2474 3.91C56.3208 3.91 56.3608 3.94333 56.3674 4.01C56.3808 4.07 56.3874 4.11667 56.3874 4.15C56.3874 4.18333 56.3674 4.25 56.3274 4.35C56.2941 4.44333 56.2774 4.5 56.2774 4.52C56.2774 4.61333 56.3274 4.7 56.4274 4.78C56.5341 4.85333 56.6541 4.94 56.7874 5.04C56.9208 5.13333 57.0374 5.25 57.1374 5.39C57.2441 5.52333 57.2974 5.69667 57.2974 5.91C57.2974 6.11 57.2541 6.31333 57.1674 6.52C57.0874 6.72667 57.0041 6.92333 56.9174 7.11C56.8374 7.29667 56.7974 7.46 56.7974 7.6C56.7974 7.72 56.8274 7.8 56.8874 7.84C56.9474 7.88 57.0174 7.9 57.0974 7.9C57.2574 7.9 57.4208 7.85 57.5874 7.75C57.7608 7.65 57.9274 7.52333 58.0874 7.37C58.2474 7.21667 58.3908 7.05667 58.5174 6.89C58.6441 6.71667 58.7374 6.55667 58.7974 6.41L58.9274 6.51C58.8008 6.79 58.6274 7.06667 58.4074 7.34C58.1874 7.60667 57.9408 7.82667 57.6674 8C57.4008 8.17333 57.1241 8.26 56.8374 8.26ZM59.664 8.44C59.2573 8.44 58.9507 8.32667 58.744 8.1C58.544 7.88 58.444 7.60667 58.444 7.28C58.444 6.98 58.5173 6.66333 58.664 6.33C58.8173 5.99667 59.0173 5.68333 59.264 5.39C59.5173 5.09667 59.794 4.86 60.094 4.68C60.394 4.49333 60.6907 4.4 60.984 4.4C61.1373 4.4 61.2773 4.44 61.404 4.52C61.5373 4.6 61.604 4.76333 61.604 5.01C61.604 5.26333 61.5273 5.50333 61.374 5.73C61.2273 5.95 61.0307 6.14667 60.784 6.32C60.544 6.49333 60.2773 6.63667 59.984 6.75C59.6973 6.85667 59.4107 6.92333 59.124 6.95C59.1107 7.01667 59.1007 7.08 59.094 7.14C59.0873 7.2 59.084 7.25667 59.084 7.31C59.084 7.51667 59.1373 7.71 59.244 7.89C59.3573 8.06333 59.5673 8.15 59.874 8.15C60.1607 8.15 60.444 8.07 60.724 7.91C61.004 7.74333 61.264 7.52667 61.504 7.26C61.744 6.99333 61.9473 6.7 62.114 6.38L62.234 6.47C62.054 6.87 61.824 7.21667 61.544 7.51C61.2707 7.80333 60.9707 8.03 60.644 8.19C60.324 8.35667 59.9973 8.44 59.664 8.44ZM59.174 6.76C59.354 6.7 59.5573 6.61333 59.784 6.5C60.0107 6.38 60.2273 6.24 60.434 6.08C60.6473 5.92 60.8207 5.74333 60.954 5.55C61.094 5.35667 61.164 5.15333 61.164 4.94C61.164 4.86667 61.1507 4.81 61.124 4.77C61.0973 4.73 61.0407 4.71 60.954 4.71C60.794 4.71 60.624 4.77333 60.444 4.9C60.264 5.02 60.0907 5.18 59.924 5.38C59.7573 5.58 59.6073 5.8 59.474 6.04C59.3407 6.28 59.2407 6.52 59.174 6.76ZM62.3941 8.47C62.1874 8.47 62.0141 8.4 61.8741 8.26C61.7274 8.12667 61.6541 7.92 61.6541 7.64C61.6541 7.4 61.7074 7.14333 61.8141 6.87C61.9207 6.59 62.0674 6.31667 62.2541 6.05C62.4407 5.77667 62.6507 5.53 62.8841 5.31C63.1241 5.08333 63.3741 4.90333 63.6341 4.77C63.9007 4.63667 64.1641 4.57 64.4241 4.57C64.6841 4.57 64.9007 4.64 65.0741 4.78C65.2474 4.91333 65.3341 5.09333 65.3341 5.32C65.3341 5.48667 65.2874 5.6 65.1941 5.66C65.1074 5.72 64.9907 5.75 64.8441 5.75C64.8774 5.63 64.8941 5.51333 64.8941 5.4C64.8941 5.24667 64.8574 5.11667 64.7841 5.01C64.7107 4.89667 64.5841 4.84 64.4041 4.84C64.2174 4.84 64.0274 4.90667 63.8341 5.04C63.6407 5.16667 63.4541 5.34 63.2741 5.56C63.0941 5.77333 62.9341 6.00667 62.7941 6.26C62.6541 6.51333 62.5441 6.76333 62.4641 7.01C62.3841 7.25667 62.3441 7.47667 62.3441 7.67C62.3441 7.93 62.4341 8.06 62.6141 8.06C62.7674 8.06 62.9341 7.99 63.1141 7.85C63.2941 7.70333 63.4774 7.52 63.6641 7.3C63.8574 7.07333 64.0407 6.84 64.2141 6.6C64.3874 6.36 64.5407 6.14 64.6741 5.94C64.7007 5.9 64.7174 5.88 64.7241 5.88C64.7841 5.88667 64.8641 5.91333 64.9641 5.96C65.0641 6 65.1141 6.05667 65.1141 6.13C65.1141 6.19 65.0841 6.27333 65.0241 6.38C64.9641 6.48 64.8974 6.59667 64.8241 6.73C64.7507 6.86333 64.6841 7 64.6241 7.14C64.5641 7.27333 64.5341 7.4 64.5341 7.52C64.5341 7.62 64.5607 7.72 64.6141 7.82C64.6674 7.91333 64.7541 7.96 64.8741 7.96C65.0541 7.96 65.2907 7.83 65.5841 7.57C65.8774 7.30333 66.1741 6.90667 66.4741 6.38L66.5741 6.48C66.4341 6.84 66.2541 7.15667 66.0341 7.43C65.8141 7.70333 65.5774 7.91667 65.3241 8.07C65.0774 8.22333 64.8341 8.3 64.5941 8.3C64.3474 8.3 64.1641 8.22667 64.0441 8.08C63.9307 7.93333 63.8741 7.77333 63.8741 7.6C63.8741 7.51333 63.8841 7.41667 63.9041 7.31C63.6174 7.69667 63.3541 7.98667 63.1141 8.18C62.8807 8.37333 62.6407 8.47 62.3941 8.47ZM67.1195 8.46C66.5262 8.46 66.2295 8.13 66.2295 7.47C66.2295 7.17667 66.2829 6.81667 66.3895 6.39C66.5029 5.95667 66.6429 5.51333 66.8095 5.06C66.7429 5.04667 66.6795 5.03667 66.6195 5.03C66.5595 5.01667 66.5029 5 66.4495 4.98V4.8C66.5029 4.80667 66.5662 4.81333 66.6395 4.82C66.7129 4.82667 66.7962 4.83333 66.8895 4.84C67.0295 4.48 67.1795 4.13333 67.3395 3.8C67.4995 3.46 67.6562 3.16 67.8095 2.9C67.9695 2.63333 68.1195 2.42333 68.2595 2.27C68.4062 2.11 68.5295 2.03 68.6295 2.03C68.6829 2.03 68.7295 2.05 68.7695 2.09C68.8162 2.12333 68.8395 2.17667 68.8395 2.25C68.8395 2.36333 68.7695 2.55 68.6295 2.81C68.4895 3.06333 68.3162 3.36667 68.1095 3.72C67.9029 4.07333 67.7029 4.45667 67.5095 4.87H67.8795C68.0995 4.87 68.3295 4.86667 68.5695 4.86C68.8162 4.85333 69.0629 4.83667 69.3095 4.81V4.99C68.5829 5.07 67.9962 5.11 67.5495 5.11H67.3995C67.2462 5.46333 67.1162 5.82667 67.0095 6.2C66.9029 6.57333 66.8495 6.93667 66.8495 7.29C66.8495 7.57667 66.8929 7.78333 66.9795 7.91C67.0662 8.03 67.2095 8.09 67.4095 8.09C67.7562 8.09 68.0962 7.93667 68.4295 7.63C68.7629 7.32333 69.0562 6.90667 69.3095 6.38L69.4395 6.48C69.2795 6.85333 69.0762 7.19 68.8295 7.49C68.5895 7.79 68.3229 8.02667 68.0295 8.2C67.7362 8.37333 67.4329 8.46 67.1195 8.46ZM70.1711 8.51C69.8578 8.51 69.6078 8.44 69.4211 8.3C69.2411 8.16667 69.1144 8 69.0411 7.8C68.9611 7.6 68.9211 7.4 68.9211 7.2C68.9211 7 68.9478 6.84667 69.0011 6.74C69.0544 6.63333 69.1178 6.55333 69.1911 6.5C69.2711 6.44667 69.3444 6.40667 69.4111 6.38C69.4844 6.35333 69.5344 6.32667 69.5611 6.3C69.7611 6.08 69.9444 5.85 70.1111 5.61C70.2778 5.37 70.4244 5.11667 70.5511 4.85V4.73C70.5511 4.48333 70.5911 4.31 70.6711 4.21C70.7578 4.10333 70.8478 4.05 70.9411 4.05C71.0478 4.05 71.1011 4.09333 71.1011 4.18C71.1011 4.21333 71.0911 4.26667 71.0711 4.34C71.0511 4.41333 71.0411 4.50667 71.0411 4.62C71.0411 4.84 71.0844 5.08 71.1711 5.34C71.2578 5.59333 71.3444 5.86333 71.4311 6.15C71.5178 6.43 71.5611 6.72333 71.5611 7.03C71.5611 7.20333 71.5411 7.36667 71.5011 7.52C71.7344 7.48 71.9544 7.37667 72.1611 7.21C72.3678 7.03667 72.5678 6.76333 72.7611 6.39L72.8511 6.49C72.7244 6.85667 72.5344 7.13667 72.2811 7.33C72.0278 7.51667 71.7511 7.63333 71.4511 7.68C71.3444 7.96667 71.1744 8.17667 70.9411 8.31C70.7144 8.44333 70.4578 8.51 70.1711 8.51ZM70.8711 7.51C70.8844 7.44333 70.8944 7.37333 70.9011 7.3C70.9078 7.22667 70.9111 7.14 70.9111 7.04C70.9111 6.72667 70.8711 6.41667 70.7911 6.11C70.7178 5.79667 70.6544 5.50333 70.6011 5.23C70.4478 5.48333 70.2844 5.72667 70.1111 5.96C69.9444 6.18667 69.7844 6.37667 69.6311 6.53C69.7311 6.74333 69.8844 6.94333 70.0911 7.13C70.3044 7.31667 70.5644 7.44333 70.8711 7.51ZM70.1911 8.16C70.2711 8.16 70.3778 8.13333 70.5111 8.08C70.6444 8.02667 70.7478 7.89 70.8211 7.67C70.5411 7.61667 70.2911 7.50667 70.0711 7.34C69.8578 7.17333 69.6978 7.00667 69.5911 6.84C69.4444 6.84667 69.3711 6.96333 69.3711 7.19C69.3711 7.43 69.4411 7.65333 69.5811 7.86C69.7278 8.06 69.9311 8.16 70.1911 8.16Z" fill="black"/>
</svg>
